<svg width="64" height="64" viewBox="0 0 64 64" fill="none" xmlns="http://www.w3.org/2000/svg">
<path d="M58.192 19.816C57.9467 19.4615 57.6192 19.1718 57.2374 18.9716C56.8557 18.7715 56.4311 18.6668 56 18.6667H19.5547L16.4773 11.28C16.0738 10.3073 15.3906 9.47625 14.5142 8.89231C13.6378 8.30837 12.6078 7.99781 11.5547 8.00001H5.33333V13.3333H11.5547L24.2053 43.6933C24.408 44.1791 24.7498 44.594 25.1878 44.8858C25.6258 45.1777 26.1403 45.3334 26.6667 45.3333H48C49.112 45.3333 50.1067 44.6427 50.4987 43.6053L58.4987 22.272C58.6499 21.8683 58.7009 21.434 58.6475 21.0063C58.5941 20.5785 58.4378 20.1701 58.192 19.816Z" fill="#FDB750"/>
<path d="M28 56C30.2091 56 32 54.2091 32 52C32 49.7909 30.2091 48 28 48C25.7909 48 24 49.7909 24 52C24 54.2091 25.7909 56 28 56Z" fill="#FDB750"/>
<path d="M46.6667 56C48.8758 56 50.6667 54.2091 50.6667 52C50.6667 49.7909 48.8758 48 46.6667 48C44.4575 48 42.6667 49.7909 42.6667 52C42.6667 54.2091 44.4575 56 46.6667 56Z" fill="#FDB750"/>
</svg>
