<svg width="64" height="64" viewBox="0 0 64 64" fill="none" xmlns="http://www.w3.org/2000/svg">
<path d="M30.6667 5.33334C18.16 5.33334 8 15.4933 8 28C8 40.5067 18.16 50.6667 30.6667 50.6667H32V58.6667C44.96 52.4267 53.3333 40 53.3333 28C53.3333 15.4933 43.1733 5.33334 30.6667 5.33334ZM33.3333 44H28V38.6667H33.3333V44ZM34.4 31.2533C34.3733 31.28 34.3467 31.3333 34.32 31.3867C34.1867 31.6 34.0533 31.8133 33.9467 32.0267C33.8933 32.1067 33.8667 32.2133 33.84 32.32C33.76 32.5067 33.68 32.6933 33.6267 32.88C33.44 33.44 33.36 34.0267 33.36 34.6933H28C28 33.3333 28.2133 32.1867 28.5333 31.2267C28.5333 31.2 28.5333 31.1733 28.56 31.1467C28.5867 31.04 28.6667 30.9867 28.6933 30.88C28.8533 30.4533 29.04 30.08 29.28 29.7067C29.36 29.5733 29.4667 29.44 29.5467 29.3067C29.6267 29.2 29.68 29.0667 29.76 28.9867L29.7867 29.0133C32.0267 26.08 35.68 25.1733 35.9733 21.8667C36.2133 19.2533 34.3467 16.72 31.7867 16.1867C29.0133 15.6 26.5067 17.2267 25.6533 19.6C25.28 20.56 24.4 21.3333 23.3067 21.3333H22.7733C21.1733 21.3333 20 19.76 20.4533 18.2133C21.2005 15.7611 22.8055 13.6598 24.9747 12.2937C27.1438 10.9275 29.7323 10.3879 32.2667 10.7733C36.7733 11.44 40.3733 15.1467 41.1467 19.6533C42.32 26.16 36.8 27.7333 34.4 31.2533Z" fill="#FDB750"/>
</svg>
