<svg width="64" height="64" viewBox="0 0 64 64" fill="none" xmlns="http://www.w3.org/2000/svg">
<path d="M32 6C17.6637 6 6 17.665 6 32C6 46.3575 17.6425 58 32 58C46.3363 58 58 46.3363 58 32C58 17.6412 46.3587 6 32 6ZM43.75 33.375C43.75 35.6989 43.0609 37.9707 41.7698 39.903C40.4787 41.8352 38.6436 43.3413 36.4965 44.2306C34.3495 45.1199 31.987 45.3526 29.7077 44.8992C27.4284 44.4459 25.3348 43.3268 23.6915 41.6835C22.0482 40.0402 20.9291 37.9466 20.4758 35.6673C20.0224 33.388 20.2551 31.0255 21.1444 28.8785C22.0337 26.7314 23.5398 24.8963 25.472 23.6052C27.4043 22.3141 29.6761 21.625 32 21.625H32.5262L29.5263 18.625L32 16.15L39.475 23.625L32 31.1L29.525 28.625L33.015 25.135C32.715 25.125 32.375 25.125 32 25.125C30.3683 25.125 28.7733 25.6089 27.4165 26.5154C26.0598 27.4219 25.0024 28.7104 24.378 30.2179C23.7536 31.7254 23.5902 33.3841 23.9085 34.9845C24.2269 36.5848 25.0126 38.0548 26.1664 39.2086C27.3202 40.3624 28.7902 41.1482 30.3905 41.4665C31.9908 41.7848 33.6496 41.6214 35.1571 40.997C36.6646 40.3726 37.9531 39.3152 38.8596 37.9585C39.7661 36.6017 40.25 35.0067 40.25 33.375V31.625H43.75V33.375Z" fill="#FDB750"/>
</svg>
