<svg width="64" height="64" viewBox="0 0 64 64" fill="none" xmlns="http://www.w3.org/2000/svg">
<path d="M32 3.55554C26.3742 3.55554 20.8748 5.22378 16.1971 8.34929C11.5194 11.4748 7.87365 15.9172 5.72076 21.1148C3.56787 26.3123 3.00457 32.0315 4.10211 37.5492C5.19964 43.0669 7.90871 48.1352 11.8867 52.1132C15.8648 56.0913 20.9331 58.8003 26.4508 59.8979C31.9684 60.9954 37.6877 60.4321 42.8852 58.2792C48.0828 56.1263 52.5252 52.4805 55.6507 47.8029C58.7762 43.1252 60.4444 37.6258 60.4444 32C60.4444 24.456 57.4476 17.2211 52.1133 11.8867C46.7789 6.55236 39.5439 3.55554 32 3.55554ZM42.4533 19.5555H46.2222C46.6937 19.5555 47.1459 19.7428 47.4793 20.0762C47.8127 20.4096 48 20.8618 48 21.3333C48 21.8048 47.8127 22.257 47.4793 22.5904C47.1459 22.9238 46.6937 23.1111 46.2222 23.1111H43.1289V23.4489C43.1548 24.8737 42.8991 26.2895 42.3766 27.6153C41.8541 28.9411 41.0751 30.1507 40.0841 31.1747C39.0931 32.1987 37.9097 33.017 36.6018 33.5827C35.2938 34.1484 33.8871 34.4503 32.4622 34.4711H28.9067L41.0311 48.8C41.413 49.2503 41.6004 49.8338 41.5521 50.4223C41.5037 51.0107 41.2236 51.5559 40.7733 51.9378C40.3231 52.3197 39.7395 52.5071 39.1511 52.4587C38.5626 52.4104 38.0175 52.1303 37.6356 51.68L22.4533 33.6711C22.1732 33.3424 21.9948 32.9393 21.9401 32.5109C21.8854 32.0825 21.9567 31.6475 22.1453 31.259C22.3339 30.8704 22.6316 30.5453 23.002 30.3233C23.3725 30.1013 23.7996 29.992 24.2311 30.0089H32.6044C34.2942 29.9578 35.8947 29.2383 37.0545 28.0084C38.2144 26.7786 38.839 25.1387 38.7911 23.4489V23.0933H22.7911C22.3196 23.0933 21.8674 22.906 21.534 22.5726C21.2006 22.2392 21.0133 21.787 21.0133 21.3155C21.0133 20.844 21.2006 20.3919 21.534 20.0585C21.8674 19.7251 22.3196 19.5378 22.7911 19.5378H37.5822C37.0346 18.7276 36.2991 18.062 35.4385 17.5976C34.5779 17.1333 33.6178 16.884 32.64 16.8711H22.6667C22.0773 16.8711 21.5121 16.637 21.0953 16.2202C20.6786 15.8035 20.4444 15.2382 20.4444 14.6489C20.4444 14.0595 20.6786 13.4943 21.0953 13.0775C21.5121 12.6608 22.0773 12.4267 22.6667 12.4267H46.2222C46.6937 12.4267 47.1459 12.614 47.4793 12.9474C47.8127 13.2807 48 13.7329 48 14.2044C48 14.6759 47.8127 15.1281 47.4793 15.4615C47.1459 15.7949 46.6937 15.9822 46.2222 15.9822H40.32C41.2505 17.0278 41.9744 18.2403 42.4533 19.5555Z" fill="#FDB750"/>
</svg>
