<svg width="32" height="32" viewBox="0 0 32 32" fill="none" xmlns="http://www.w3.org/2000/svg">
<path fill-rule="evenodd" clip-rule="evenodd" d="M15.9999 1.33337C7.89992 1.33337 1.33325 7.90004 1.33325 16C1.33325 24.1 7.89992 30.6667 15.9999 30.6667C24.0999 30.6667 30.6666 24.1 30.6666 16C30.6666 7.90004 24.0999 1.33337 15.9999 1.33337ZM22.3573 13.52C22.4743 13.3862 22.5634 13.2304 22.6194 13.0616C22.6753 12.8928 22.6969 12.7146 22.6829 12.5374C22.669 12.3601 22.6197 12.1875 22.538 12.0295C22.4563 11.8716 22.3439 11.7316 22.2073 11.6178C22.0707 11.504 21.9128 11.4187 21.7427 11.3668C21.5727 11.3149 21.3939 11.2976 21.2171 11.3158C21.0402 11.334 20.8688 11.3874 20.7129 11.4729C20.557 11.5583 20.4198 11.6741 20.3093 11.8134L14.5759 18.692L11.6093 15.724C11.3578 15.4812 11.021 15.3468 10.6714 15.3498C10.3218 15.3528 9.98737 15.4931 9.74016 15.7403C9.49295 15.9875 9.35272 16.3219 9.34969 16.6715C9.34665 17.0211 9.48104 17.3579 9.72392 17.6094L13.7239 21.6094C13.8549 21.7403 14.0118 21.8425 14.1845 21.9095C14.3572 21.9764 14.5419 22.0066 14.7269 21.9982C14.912 21.9898 15.0932 21.943 15.2591 21.8606C15.425 21.7783 15.572 21.6623 15.6906 21.52L22.3573 13.52Z" fill="white"/>
</svg>
