<svg width="40" height="40" viewBox="0 0 40 40" fill="none" xmlns="http://www.w3.org/2000/svg">
<path d="M19.1667 3.33337C11.35 3.33337 5 9.68337 5 17.5C5 25.3167 11.35 31.6667 19.1667 31.6667H20V36.6667C28.1 32.7667 33.3333 25 33.3333 17.5C33.3333 9.68337 26.9833 3.33337 19.1667 3.33337ZM20.8333 27.5H17.5V24.1667H20.8333V27.5ZM21.5 19.5334C21.4833 19.55 21.4667 19.5834 21.45 19.6167C21.3667 19.75 21.2833 19.8834 21.2167 20.0167C21.1833 20.0667 21.1667 20.1334 21.15 20.2C21.1 20.3167 21.05 20.4334 21.0167 20.55C20.9 20.9 20.85 21.2667 20.85 21.6834H17.5C17.5 20.8334 17.6333 20.1167 17.8333 19.5167C17.8333 19.5 17.8333 19.4834 17.85 19.4667C17.8667 19.4 17.9167 19.3667 17.9333 19.3C18.0333 19.0334 18.15 18.8 18.3 18.5667C18.35 18.4834 18.4167 18.4 18.4667 18.3167C18.5167 18.25 18.55 18.1667 18.6 18.1167L18.6167 18.1334C20.0167 16.3 22.3 15.7334 22.4833 13.6667C22.6333 12.0334 21.4667 10.45 19.8667 10.1167C18.1333 9.75004 16.5667 10.7667 16.0333 12.25C15.8 12.85 15.25 13.3334 14.5667 13.3334H14.2333C13.2333 13.3334 12.5 12.35 12.7833 11.3834C13.2503 9.85074 14.2534 8.53743 15.6092 7.68359C16.9649 6.82975 18.5827 6.49245 20.1667 6.73337C22.9833 7.15004 25.2333 9.46671 25.7167 12.2834C26.45 16.35 23 17.3334 21.5 19.5334Z" fill="white"/>
</svg>
