<svg width="40" height="40" viewBox="0 0 40 40" fill="none" xmlns="http://www.w3.org/2000/svg">
<path d="M33.3906 10.3594L27.1406 4.10939C26.9025 3.87724 26.5826 3.74815 26.25 3.75002H13.75C13.087 3.75002 12.4511 4.01341 11.9822 4.48225C11.5134 4.95109 11.25 5.58698 11.25 6.25002V8.75002H8.75C8.08696 8.75002 7.45107 9.01341 6.98223 9.48225C6.51339 9.95109 6.25 10.587 6.25 11.25V33.75C6.25 34.4131 6.51339 35.0489 6.98223 35.5178C7.45107 35.9866 8.08696 36.25 8.75 36.25H26.25C26.913 36.25 27.5489 35.9866 28.0178 35.5178C28.4866 35.0489 28.75 34.4131 28.75 33.75V31.25H31.25C31.913 31.25 32.5489 30.9866 33.0178 30.5178C33.4866 30.0489 33.75 29.4131 33.75 28.75V11.25C33.7519 10.9175 33.6228 10.5975 33.3906 10.3594ZM21.25 30H13.75C13.4185 30 13.1005 29.8683 12.8661 29.6339C12.6317 29.3995 12.5 29.0815 12.5 28.75C12.5 28.4185 12.6317 28.1005 12.8661 27.8661C13.1005 27.6317 13.4185 27.5 13.75 27.5H21.25C21.5815 27.5 21.8995 27.6317 22.1339 27.8661C22.3683 28.1005 22.5 28.4185 22.5 28.75C22.5 29.0815 22.3683 29.3995 22.1339 29.6339C21.8995 29.8683 21.5815 30 21.25 30ZM21.25 25H13.75C13.4185 25 13.1005 24.8683 12.8661 24.6339C12.6317 24.3995 12.5 24.0815 12.5 23.75C12.5 23.4185 12.6317 23.1006 12.8661 22.8661C13.1005 22.6317 13.4185 22.5 13.75 22.5H21.25C21.5815 22.5 21.8995 22.6317 22.1339 22.8661C22.3683 23.1006 22.5 23.4185 22.5 23.75C22.5 24.0815 22.3683 24.3995 22.1339 24.6339C21.8995 24.8683 21.5815 25 21.25 25ZM31.25 28.75H28.75V16.25C28.7519 15.9175 28.6228 15.5975 28.3906 15.3594L22.1406 9.10939C21.9025 8.87724 21.5826 8.74814 21.25 8.75002H13.75V6.25002H25.7344L31.25 11.7656V28.75Z" fill="white"/>
</svg>
