<svg width="24" height="32" viewBox="0 0 24 32" fill="none" xmlns="http://www.w3.org/2000/svg">
<g clip-path="url(#clip0_167_6890)">
<path d="M23.2727 20.3636C23.2727 20.7576 23.1288 21.0985 22.8409 21.3864L12.6591 31.5682C12.3712 31.8561 12.0303 32 11.6364 32C11.2424 32 10.9015 31.8561 10.6136 31.5682L0.431818 21.3864C0.143939 21.0985 0 20.7576 0 20.3636C0 19.9697 0.143939 19.6288 0.431818 19.3409C0.719697 19.053 1.06061 18.9091 1.45455 18.9091H21.8182C22.2121 18.9091 22.553 19.053 22.8409 19.3409C23.1288 19.6288 23.2727 19.9697 23.2727 20.3636ZM23.2727 11.6364C23.2727 12.0303 23.1288 12.3712 22.8409 12.6591C22.553 12.947 22.2121 13.0909 21.8182 13.0909H1.45455C1.06061 13.0909 0.719697 12.947 0.431818 12.6591C0.143939 12.3712 0 12.0303 0 11.6364C0 11.2424 0.143939 10.9015 0.431818 10.6136L10.6136 0.431818C10.9015 0.143939 11.2424 0 11.6364 0C12.0303 0 12.3712 0.143939 12.6591 0.431818L22.8409 10.6136C23.1288 10.9015 23.2727 11.2424 23.2727 11.6364Z" fill="white"/>
</g>
<defs>
<clipPath id="clip0_167_6890">
<rect width="23.2727" height="32" fill="white"/>
</clipPath>
</defs>
</svg>
