<svg width="25" height="24" viewBox="0 0 25 24" fill="none" xmlns="http://www.w3.org/2000/svg">
<rect x="0.5" width="24" height="24" rx="8" fill="#7FD287"/>
<path fill-rule="evenodd" clip-rule="evenodd" d="M17.273 7.22707C17.5659 7.51996 17.5659 7.99484 17.273 8.28773L13.5607 12L17.273 15.7124C17.5659 16.0052 17.5659 16.4801 17.273 16.773C16.9801 17.0659 16.5052 17.0659 16.2123 16.773L12.5 13.0607L8.78769 16.773C8.49481 17.0659 8.01991 17.0659 7.72703 16.773C7.43415 16.4801 7.43415 16.0052 7.72703 15.7124L11.4393 12L7.72703 8.28773C7.43414 7.99484 7.43415 7.51996 7.72703 7.22707C8.01991 6.93419 8.4948 6.93418 8.78769 7.22707L12.5 10.9394L16.2123 7.22707C16.5052 6.93418 16.9801 6.93419 17.273 7.22707Z" fill="white"/>
</svg>
