<svg width="11" height="12" viewBox="0 0 11 12" fill="none" xmlns="http://www.w3.org/2000/svg">
<g clip-path="url(#clip0_188_29969)">
<path d="M10.5 1.875V3C10.5 4.03594 8.14922 4.875 5.25 4.875C2.35078 4.875 0 4.03594 0 3V1.875C0 0.839531 2.35078 0 5.25 0C8.14922 0 10.5 0.839531 10.5 1.875ZM9.21563 5.03203C9.68203 4.85859 10.1508 4.63594 10.5 4.36172V6.75C10.5 7.78594 8.14922 8.625 5.25 8.625C2.35078 8.625 0 7.78594 0 6.75V4.36172C0.349922 4.63594 0.797344 4.85859 1.28555 5.03203C2.33578 5.40703 3.73828 5.625 5.25 5.625C6.76172 5.625 8.16328 5.40703 9.21563 5.03203ZM1.28555 8.78203C2.33578 9.15703 3.73828 9.375 5.25 9.375C6.76172 9.375 8.16328 9.15703 9.21563 8.78203C9.68203 8.60859 10.1508 8.38594 10.5 8.11172V10.125C10.5 11.1609 8.14922 12 5.25 12C2.35078 12 0 11.1609 0 10.125V8.11172C0.349922 8.38594 0.797344 8.60859 1.28555 8.78203Z" fill="white"/>
</g>
<defs>
<clipPath id="clip0_188_29969">
<rect width="10.5" height="12" fill="white"/>
</clipPath>
</defs>
</svg>
