<svg width="40" height="40" viewBox="0 0 40 40" fill="none" xmlns="http://www.w3.org/2000/svg">
<path fill-rule="evenodd" clip-rule="evenodd" d="M40 0H0V40H40V0ZM15 8.33333C14.558 8.33333 14.134 8.50893 13.8215 8.82149C13.5089 9.13405 13.3333 9.55797 13.3333 10C13.3333 10.442 13.5089 10.8659 13.8215 11.1785C14.134 11.4911 14.558 11.6667 15 11.6667H16.6667C17.9 11.6667 18.9775 12.3367 19.5542 13.3333H15C14.558 13.3333 14.134 13.5089 13.8215 13.8215C13.5089 14.134 13.3333 14.558 13.3333 15C13.3333 15.442 13.5089 15.8659 13.8215 16.1785C14.134 16.4911 14.558 16.6667 15 16.6667H19.5542C19.2617 17.1736 18.8408 17.5946 18.3339 17.8872C17.827 18.1797 17.2519 18.3336 16.6667 18.3333H15C14.6983 18.3333 14.4022 18.4152 14.1433 18.5702C13.8845 18.7253 13.6726 18.9477 13.5302 19.2137C13.3879 19.4798 13.3204 19.7795 13.335 20.0809C13.3497 20.3822 13.4459 20.674 13.6133 20.925L20.28 30.925C20.5253 31.2928 20.9067 31.548 21.3402 31.6346C21.7737 31.7212 22.2239 31.632 22.5917 31.3867C22.9594 31.1413 23.2147 30.76 23.3013 30.3264C23.3878 29.8929 23.2987 29.4428 23.0533 29.075L18.0225 21.5283C19.2415 21.2742 20.3651 20.6843 21.2665 19.8252C22.1679 18.9661 22.811 17.8721 23.1233 16.6667H25C25.442 16.6667 25.8659 16.4911 26.1785 16.1785C26.4911 15.8659 26.6667 15.442 26.6667 15C26.6667 14.558 26.4911 14.134 26.1785 13.8215C25.8659 13.5089 25.442 13.3333 25 13.3333H23.1233C22.973 12.7494 22.7436 12.1886 22.4417 11.6667H25C25.442 11.6667 25.8659 11.4911 26.1785 11.1785C26.4911 10.8659 26.6667 10.442 26.6667 10C26.6667 9.55797 26.4911 9.13405 26.1785 8.82149C25.8659 8.50893 25.442 8.33333 25 8.33333H15Z" fill="#010100"/>
</svg>
