<svg width="80" height="80" viewBox="0 0 80 80" fill="none" xmlns="http://www.w3.org/2000/svg">
<path d="M75 60H45V58.6163C45 57.6688 45.535 56.8038 46.3825 56.38L55 52.5L60 57.5L65 52.5L73.6175 56.38C74.465 56.8038 75 57.6688 75 58.6163V60Z" fill="#FA6450"/>
<path d="M51.3825 56.38L56.5525 54.0525L55 52.5L46.3825 56.38C45.535 56.8038 45 57.6688 45 58.6163V60H50V58.6163C50 57.6688 50.535 56.8038 51.3825 56.38Z" fill="#DC4632"/>
<path d="M55 52.5V47.0713H65V52.5L60 57.5L55 52.5Z" fill="#D2AA82"/>
<path d="M72.5 35H70V27.5C70 26.1187 68.8813 25 67.5 25H52.5C51.1188 25 50 26.1187 50 27.5V35H47.5C46.1187 35 45 36.1187 45 37.5V38.455C45 39.4025 45.535 40.2675 46.3825 40.6913L50 42.5V42.9287C50 44.255 50.5263 45.5263 51.465 46.4638L53.5362 48.535C54.4737 49.4725 55.7463 50 57.0713 50H62.9287C64.255 50 65.5263 49.4737 66.4638 48.535L68.535 46.4638C69.4725 45.5263 70 44.2537 70 42.9287V42.5L73.6175 40.6913C74.465 40.2675 75 39.4012 75 38.455V37.5C75 36.1187 73.8813 35 72.5 35Z" fill="#F0C8A0"/>
<path d="M72.5 37.5C69.7387 37.5 67.5 35.2613 67.5 32.5V25H70C71.3812 25 72.5 26.1187 72.5 27.5V37.5Z" fill="#DC9600"/>
<path d="M65 20H55C50.8575 20 47.5 23.3575 47.5 27.5V32.5C47.5 33.8813 48.6187 35 50 35H56.2862C60.265 35 64.08 33.42 66.8925 30.6063L68.535 28.9637C69.4725 28.0262 70 26.7538 70 25.4288V25C70 22.2387 67.7612 20 65 20Z" fill="#FAB400"/>
<path d="M57.5 38.125H52.5C52.155 38.125 51.875 37.845 51.875 37.5C51.875 37.155 52.155 36.875 52.5 36.875H57.5C57.845 36.875 58.125 37.155 58.125 37.5C58.125 37.845 57.845 38.125 57.5 38.125Z" fill="#BE7800"/>
<path d="M60 45.6237C59.1988 45.6237 58.4 45.3187 57.79 44.71L57.0575 43.9787C56.8137 43.735 56.8137 43.3387 57.0575 43.095C57.3012 42.8512 57.6975 42.8512 57.9413 43.095L58.6737 43.8262C59.4037 44.5575 60.595 44.5575 61.325 43.8262L62.0575 43.095C62.3013 42.8512 62.6975 42.8512 62.9413 43.095C63.185 43.3387 63.185 43.735 62.9413 43.9787L62.2087 44.71C61.6 45.3187 60.8 45.6237 60 45.6237Z" fill="#BE7800"/>
<path d="M56.25 40C56.9404 40 57.5 39.4404 57.5 38.75C57.5 38.0596 56.9404 37.5 56.25 37.5C55.5596 37.5 55 38.0596 55 38.75C55 39.4404 55.5596 40 56.25 40Z" fill="#BE7800"/>
<path d="M67.5 38.125H62.5C62.155 38.125 61.875 37.845 61.875 37.5C61.875 37.155 62.155 36.875 62.5 36.875H67.5C67.845 36.875 68.125 37.155 68.125 37.5C68.125 37.845 67.845 38.125 67.5 38.125Z" fill="#BE7800"/>
<path d="M63.75 40C64.4404 40 65 39.4404 65 38.75C65 38.0596 64.4404 37.5 63.75 37.5C63.0596 37.5 62.5 38.0596 62.5 38.75C62.5 39.4404 63.0596 40 63.75 40Z" fill="#BE7800"/>
<path d="M30 25V20H10V25H5V60H35V25H30Z" fill="#F0F0F0"/>
<path d="M5 25H10V60H5V25Z" fill="#D2D2D2"/>
<path d="M10 20H15V25H10V20Z" fill="#D2D2D2"/>
<path d="M17.5 52.5H22.5V60H17.5V52.5Z" fill="#505050"/>
<path d="M50 10L45 5V7.5H17.5V17.5H22.5V12.5H45V15L50 10Z" fill="#64C8F0"/>
<path d="M17.5 7.5H20V17.5H17.5V7.5Z" fill="#46AAD2"/>
<path d="M30 70L35 75V72.5H62.5V62.5H57.5V67.5H35V65L30 70Z" fill="#3CC8B4"/>
<path d="M35 67.5V65L30 70L35 75V72.5L32.5 70L35 67.5Z" fill="#1EAA96"/>
<path d="M10 30H15V35H10V30Z" fill="#FAB400"/>
<path d="M17.5 30H22.5V35H17.5V30Z" fill="#FAB400"/>
<path d="M25 30H30V35H25V30Z" fill="#FAB400"/>
<path d="M10 37.5H15V42.5H10V37.5Z" fill="#FAB400"/>
<path d="M17.5 37.5H22.5V42.5H17.5V37.5Z" fill="#FAB400"/>
<path d="M25 37.5H30V42.5H25V37.5Z" fill="#FAB400"/>
<path d="M10 45H15V50H10V45Z" fill="#FAB400"/>
<path d="M17.5 45H22.5V50H17.5V45Z" fill="#FAB400"/>
<path d="M25 45H30V50H25V45Z" fill="#FAB400"/>
</svg>
