<svg width="80" height="80" viewBox="0 0 80 80" fill="none" xmlns="http://www.w3.org/2000/svg">
<path d="M6.67938 19.1181H73.32V71.5219H6.67938V19.1181Z" fill="#FE8A71"/>
<path d="M31.1088 50.2306H48.8913V71.5219H31.1088V50.2306Z" fill="#FAF5E4"/>
<path d="M61.5237 14.5819H76.0581V19.1181H61.5237V14.5819Z" fill="#3DA4AB"/>
<path d="M3.94125 14.5819H18.4756V19.1181H3.94125V14.5819Z" fill="#3DA4AB"/>
<path d="M18.4763 8.47812V63.8962H25.1919V40H54.8081V63.8962H61.5238V8.47812H18.4763Z" fill="#F6CD61"/>
<path d="M36.2663 26.6656H43.7344V34.1337H36.2663V26.6656Z" fill="#FAF5E4"/>
<path d="M23.9488 26.6656H31.4169V34.1337H23.9488V26.6656Z" fill="#FAF5E4"/>
<path d="M48.5831 26.6656H56.0513V34.1337H48.5831V26.6656Z" fill="#FAF5E4"/>
<path d="M36.2663 14.3438H43.7344V21.8119H36.2663V14.3438Z" fill="#FAF5E4"/>
<path d="M23.9488 14.3438H31.4169V21.8119H23.9488V14.3438Z" fill="#FAF5E4"/>
<path d="M48.5831 14.3438H56.0513V21.8119H48.5831V14.3438Z" fill="#FAF5E4"/>
<path d="M15.7381 71.5219L18.4763 63.8963H25.1919L27.93 71.5219H15.7381Z" fill="#3DA4AB"/>
<path d="M52.07 71.5219L54.8081 63.8963H61.5238L64.2619 71.5219H52.07Z" fill="#3DA4AB"/>
<path d="M3.94125 71.5219H76.0581V76.0581H3.94125V71.5219Z" fill="#3DA4AB"/>
<path d="M15.7381 3.94125H64.2619V8.4775H15.7381V3.94125Z" fill="#3DA4AB"/>
<path d="M38.9062 50.2306H41.0938V71.5219H38.9062V50.2306Z" fill="#3DA4AB"/>
</svg>
