<svg width="80" height="80" viewBox="0 0 80 80" fill="none" xmlns="http://www.w3.org/2000/svg">
<path d="M63.75 40V47.5H48.75V40C49.0784 40.0002 49.4036 39.9357 49.707 39.8102C50.0104 39.6846 50.2861 39.5005 50.5183 39.2683C50.7505 39.0361 50.9346 38.7604 51.0602 38.457C51.1857 38.1536 51.2502 37.8284 51.25 37.5V35H61.25V37.5C61.2496 37.8284 61.3139 38.1537 61.4394 38.4572C61.5649 38.7607 61.749 39.0365 61.9813 39.2687C62.2135 39.501 62.4893 39.6851 62.7928 39.8106C63.0963 39.9361 63.4216 40.0004 63.75 40Z" fill="#FDC8A2"/>
<path d="M61.4484 38.475C59.8311 39.384 58.0234 39.9019 56.1701 39.9874C54.3168 40.0728 52.4692 39.7235 50.775 38.9672C51.0844 38.5406 51.2507 38.027 51.25 37.5V35H61.25V37.5C61.2495 37.8351 61.317 38.1668 61.4484 38.475Z" fill="#FDBF92"/>
<path d="M38.1142 44.7145L35 52.5H45V71.25H67.5V52.5H76.25V47.5C76.25 45.5109 75.4598 43.6032 74.0533 42.1967C72.6468 40.7902 70.7391 40 68.75 40H63.75L62.3478 41.8695C61.6188 42.8415 60.6736 43.6304 59.5868 44.1738C58.5001 44.7171 57.3018 45 56.0869 45C54.6334 45 53.2087 44.5953 51.9724 43.8312C50.736 43.067 49.7369 41.9737 49.0869 40.6738L48.75 40H45.0781C43.5791 39.9999 42.1145 40.449 40.8732 41.2894C39.6319 42.1297 38.6709 43.3228 38.1142 44.7145Z" fill="#DE5540"/>
<path d="M66.25 47.5H68.75V52.5H66.25V47.5Z" fill="#D64A34"/>
<path d="M56.25 51.25C53.8365 51.2491 51.4656 50.6138 49.375 49.4078L50.625 47.2428C52.2155 48.1611 54.0066 48.676 55.8419 48.7426C57.6772 48.8092 59.5009 48.4255 61.1538 47.625L62.2436 49.875C60.3742 50.7773 58.3257 51.2473 56.25 51.25Z" fill="#D64A34"/>
<path d="M37.5 71.25H27.5L35 52.5H45L37.5 71.25Z" fill="#FDC8A2"/>
<path d="M67.5 27.5H65V20H67.5C68.4946 20 69.4484 20.3951 70.1516 21.0983C70.8549 21.8016 71.25 22.7554 71.25 23.75C71.25 24.7446 70.8549 25.6984 70.1516 26.4017C69.4484 27.1049 68.4946 27.5 67.5 27.5Z" fill="#FDB683"/>
<path d="M43.75 20H46.25V27.5H43.75C42.7554 27.5 41.8016 27.1049 41.0984 26.4017C40.3951 25.6984 40 24.7446 40 23.75C40 22.7554 40.3951 21.8016 41.0984 21.0983C41.8016 20.3951 42.7554 20 43.75 20Z" fill="#FDB683"/>
<path d="M51.25 10H60C61.9891 10 63.8968 10.7902 65.3033 12.1967C66.7098 13.6032 67.5 15.5109 67.5 17.5V25.625C67.5 28.7744 66.2489 31.7949 64.0219 34.0219C61.7949 36.2489 58.7744 37.5 55.625 37.5C52.4756 37.5 49.4551 36.2489 47.2281 34.0219C45.0011 31.7949 43.75 28.7744 43.75 25.625V17.5C43.75 15.5109 44.5402 13.6032 45.9467 12.1967C47.3532 10.7902 49.2609 10 51.25 10Z" fill="#FDC8A2"/>
<path d="M67.5 20L64.7434 19.0811C63.3622 18.6206 62.1609 17.7373 61.3095 16.5561C60.4582 15.375 60.0001 13.956 60 12.5V6.25C61.9891 6.25 63.8968 7.04018 65.3033 8.4467C66.7098 9.85322 67.5 11.7609 67.5 13.75V20Z" fill="#7D4A38"/>
<path d="M60 6.25V12.5C57.5682 14.1222 54.9104 15.3768 52.1125 16.2234C49.3152 17.0702 46.4085 17.5003 43.4859 17.5H41.25V13.75C41.25 11.0978 42.3036 8.5543 44.1789 6.67893C46.0543 4.80357 48.5978 3.75 51.25 3.75H55.9547C56.7946 3.74986 57.618 3.98369 58.3325 4.42526C59.047 4.86682 59.6244 5.49868 60 6.25Z" fill="#844E3A"/>
<path d="M57.1344 9.63438C56.9688 9.80001 52.9406 13.7094 41.3875 14.9922L41.25 15.0047V13.75C41.2496 13.3263 41.2762 12.9031 41.3297 12.4828C46.7297 11.8609 50.25 10.6469 52.2609 9.73126C54.4563 8.73126 55.3656 7.86719 55.3734 7.85782L57.1344 9.63438Z" fill="#784533"/>
<path d="M50.5594 8.61874C50.4469 8.67499 47.7344 9.99999 42.5 9.99999L41.9875 9.97499C42.3521 9.07716 42.847 8.23795 43.4562 7.48436C47.4078 7.3453 49.4266 6.38905 49.4484 6.37811L50.5594 8.61874Z" fill="#784533"/>
<path d="M50 25C49.5055 25 49.0222 24.8534 48.6111 24.5787C48.2 24.304 47.8795 23.9135 47.6903 23.4567C47.5011 22.9999 47.4516 22.4972 47.548 22.0123C47.6445 21.5273 47.8826 21.0819 48.2322 20.7322C48.5819 20.3826 49.0273 20.1445 49.5123 20.048C49.9972 19.9516 50.4999 20.0011 50.9567 20.1903C51.4135 20.3795 51.804 20.7 52.0787 21.1111C52.3534 21.5222 52.5 22.0055 52.5 22.5C52.4992 23.1628 52.2356 23.7982 51.7669 24.2669C51.2982 24.7356 50.6628 24.9992 50 25Z" fill="#844E3A"/>
<path d="M60 25C59.5055 25 59.0222 24.8534 58.6111 24.5787C58.2 24.304 57.8795 23.9135 57.6903 23.4567C57.5011 22.9999 57.4516 22.4972 57.548 22.0123C57.6445 21.5273 57.8826 21.0819 58.2322 20.7322C58.5819 20.3826 59.0273 20.1445 59.5123 20.048C59.9972 19.9516 60.4999 20.0011 60.9567 20.1903C61.4135 20.3795 61.804 20.7 62.0787 21.1111C62.3534 21.5222 62.5 22.0055 62.5 22.5C62.4992 23.1628 62.2356 23.7982 61.7669 24.2669C61.2982 24.7356 60.6628 24.9992 60 25Z" fill="#844E3A"/>
<path d="M55 30.0033C53.4267 30.004 51.887 29.5476 50.5683 28.6895L51.9317 26.5941C52.8449 27.1878 53.9108 27.5038 55 27.5038C56.0892 27.5038 57.1551 27.1878 58.0683 26.5941L59.4317 28.6895C58.113 29.5476 56.5733 30.004 55 30.0033Z" fill="#FCB079"/>
<path d="M3.75 71.25H76.25V76.25H3.75V71.25Z" fill="#844E3A"/>
<path d="M42.5 31.25H7.5C5.42893 31.25 3.75 32.9289 3.75 35V57.5C3.75 59.5711 5.42893 61.25 7.5 61.25H42.5C44.5711 61.25 46.25 59.5711 46.25 57.5V35C46.25 32.9289 44.5711 31.25 42.5 31.25Z" fill="#D5D5D3"/>
<path d="M15 36.25H20V38.75H15V36.25Z" fill="#C6C6C4"/>
<path d="M22.5 36.25H27.5V38.75H22.5V36.25Z" fill="#C6C6C4"/>
<path d="M30 36.25H35V38.75H30V36.25Z" fill="#C6C6C4"/>
<path d="M37.5 36.25H42.5V38.75H37.5V36.25Z" fill="#C6C6C4"/>
<path d="M7.5 36.25H12.5V38.75H7.5V36.25Z" fill="#C6C6C4"/>
<path d="M25 61.25H30L28.75 53.75H25V61.25Z" fill="#CECECC"/>
<path d="M17.5 66.25H32.5V71.25H17.5V66.25Z" fill="#D5D5D3"/>
<path d="M25 71.25H12.5L20 53.75H28.75L25 71.25Z" fill="#DFDFDD"/>
<path d="M37.5 66.25H52.5V71.25H37.5V66.25Z" fill="#D5D5D3"/>
<path d="M67.5 52.5V62.5H51.25C49.9239 62.5 48.6521 63.0268 47.7145 63.9645C46.7768 64.9021 46.25 66.1739 46.25 67.5V70C46.25 70.3315 46.3817 70.6495 46.6161 70.8839C46.8505 71.1183 47.1685 71.25 47.5 71.25H67.5C69.8206 71.25 72.0462 70.3281 73.6872 68.6872C75.3281 67.0462 76.25 64.8206 76.25 62.5V52.5H67.5Z" fill="#FDC8A2"/>
</svg>
