<svg width="80" height="80" viewBox="0 0 80 80" fill="none" xmlns="http://www.w3.org/2000/svg">
<g clip-path="url(#clip0_152_1706)">
<path d="M10.8447 16.8545C5.13937 23.5434 1.69687 32.2176 1.69687 41.6961C1.69687 62.8509 18.8461 80 40.0008 80C40.6986 80 41.3931 79.9817 42.0825 79.9434L50.6008 71.4251V53.8111L36.1987 47.3869V21.8011L10.8447 16.8545Z" fill="#5877D1"/>
<path d="M74.5102 58.3334C76.9408 53.3026 78.3031 47.6572 78.3031 41.6961C78.3031 32.3173 74.9305 23.7245 69.3331 17.0656L36.1989 21.8012V47.387L50.6009 53.8112L74.5102 58.3334Z" fill="#5877D1"/>
<path d="M11.8476 45.0586C11.8476 35.1586 15.2252 26.048 20.8898 18.8144L10.8445 16.8545C5.13937 23.5434 1.69687 32.2176 1.69687 41.6961C1.69687 58.3622 12.3419 72.5397 27.2025 77.8068C17.8205 69.9922 11.8476 58.2234 11.8476 45.0586Z" fill="#385AC4"/>
<path d="M74.5101 58.3334C68.6037 70.5664 56.384 79.1775 42.0826 79.9435L41.0875 77.5278C40.4494 75.9789 40.9687 74.1992 42.3253 73.2314C43.274 72.5586 43.8354 71.467 43.8354 70.3039C43.7555 69.6097 44.1787 68.0266 42.8636 66.6239L40.9878 64.6236C39.8364 63.3958 39.6919 61.5317 40.6406 60.1411L41.144 59.4035C42.4914 57.4264 41.5676 54.71 39.2965 53.9639L33.8505 52.1763C33.3503 52.0117 32.93 51.6713 32.6659 51.2159L28.9311 44.7913C28.1186 43.3906 26.105 43.3641 25.2544 44.7431L24.3605 46.1919C23.965 46.8316 23.2722 47.2103 22.538 47.2103C21.1303 47.2103 20.1089 45.8809 20.4612 44.5255L22.3951 37.1222C22.5479 36.5323 22.9467 36.0356 23.4884 35.7566L27.4294 33.728C28.3176 33.2727 28.749 32.2791 28.5409 31.3572C28.1755 29.7108 26.8497 28.4497 25.1881 28.1656C23.1762 27.7456 21.8876 27.8359 20.2753 26.8564L14.5562 23.3856C13.1423 22.5267 12.1006 21.1692 11.6387 19.5809L10.8445 16.8545V16.8528C17.8706 8.61547 28.3242 3.39203 40.0008 3.39203C51.7753 3.39203 62.3086 8.70531 69.3331 17.0655L67.7764 19.8334C67.1847 20.8908 66.0842 21.6258 64.8175 21.7275C63.5515 21.8289 62.4234 22.5666 61.8236 23.6847L60.3981 26.3413C59.702 27.6388 58.3081 28.4064 56.8376 28.3017C55.9475 28.2422 55.7798 28.2136 55.3556 28.2136C53.4201 28.2136 51.5642 29.0227 50.2451 30.4598C47.6425 33.3014 48.8936 36.3173 46.7512 39.1641L43.5015 43.5003C42.7456 44.5105 42.9615 45.9442 43.9834 46.6853L46.7995 48.7272C47.3461 49.1227 48.0406 49.2539 48.6951 49.0844C52.5428 48.1252 52.7911 47.9197 53.7325 47.9197C54.8889 47.9197 56.0136 48.3783 56.8459 49.2239C59.2069 51.6231 61.7825 49.735 64.2276 51.0381C66.3925 52.2053 66.6094 52.2538 67.0919 52.6281L74.5101 58.3334Z" fill="#71D5B4"/>
<path d="M30.6023 4.55499C22.7825 6.52765 15.9194 10.9034 10.8447 16.853V16.8547L11.6389 19.5811C12.1008 21.1694 13.1425 22.5269 14.5564 23.3858L16.9456 24.8358C20.2208 18.7748 24.9244 13.6016 30.6025 9.7589V4.55499H30.6023Z" fill="#31C695"/>
<path d="M28.7286 0.000146216C23.9009 -0.0173538 20.1523 4.16952 20.44 8.98874C20.7336 13.9072 24.0003 18.3356 26.3356 20.9045C27.6008 22.2962 29.7908 22.3005 31.0562 20.9089C33.5034 18.2178 36.977 13.4819 36.977 8.27921C36.977 3.71702 33.2869 0.0167087 28.7286 0.000146216Z" fill="#F98797"/>
<path d="M59.085 41.4553C54.2573 41.4378 50.5087 45.6247 50.7964 50.4439C51.09 55.3623 54.3567 59.7908 56.692 62.3597C57.9572 63.7514 60.1472 63.7556 61.4126 62.364C63.8598 59.6729 67.3334 54.937 67.3334 49.7343C67.3334 45.1722 63.6434 41.4718 59.085 41.4553Z" fill="#F98797"/>
<path d="M26.9547 8.79796C26.9547 5.45687 28.262 2.42281 30.39 0.173119C29.8534 0.0617124 29.2978 0.00218113 28.7286 -6.37435e-06C23.9009 -0.0175064 20.1523 4.16953 20.44 8.98859C20.7336 13.907 24.0003 18.3355 26.3356 20.9044C27.6008 22.2961 29.7908 22.3003 31.0562 20.9087C31.5097 20.4102 31.9984 19.8409 32.4936 19.212C29.1519 16.9558 26.9547 13.1336 26.9547 8.79796Z" fill="#E35B70"/>
<path d="M57.3111 50.2531C57.3111 46.912 58.6184 43.8779 60.7464 41.6283C60.2098 41.5169 59.6542 41.4573 59.085 41.4551C54.2573 41.4376 50.5087 45.6247 50.7964 50.4437C51.09 55.3622 54.3567 59.7906 56.692 62.3595C57.9572 63.7512 60.1472 63.7555 61.4126 62.3639C61.8661 61.8653 62.3548 61.2962 62.85 60.6672C59.5083 58.4109 57.3111 54.5887 57.3111 50.2531Z" fill="#E35B70"/>
<path d="M28.6978 11.3102C30.3717 11.3102 31.7287 9.95317 31.7287 8.27923C31.7287 6.60529 30.3717 5.24829 28.6978 5.24829C27.0239 5.24829 25.6669 6.60529 25.6669 8.27923C25.6669 9.95317 27.0239 11.3102 28.6978 11.3102Z" fill="#E8E7F9"/>
<path d="M59.0542 52.7653C60.7282 52.7653 62.0852 51.4083 62.0852 49.7344C62.0852 48.0605 60.7282 46.7035 59.0542 46.7035C57.3803 46.7035 56.0233 48.0605 56.0233 49.7344C56.0233 51.4083 57.3803 52.7653 59.0542 52.7653Z" fill="#E8E7F9"/>
</g>
<defs>
<clipPath id="clip0_152_1706">
<rect width="80" height="80" fill="white"/>
</clipPath>
</defs>
</svg>
