<svg width="80" height="80" viewBox="0 0 80 80" fill="none" xmlns="http://www.w3.org/2000/svg">
<g clip-path="url(#clip0_141_1365)">
<path d="M6.09328 59.5001H73.9067C76.6992 54.1866 78.2815 48.1376 78.2815 41.7183C78.2815 20.5759 61.1423 3.43671 40 3.43671C18.8576 3.43671 1.71828 20.5759 1.71828 41.7183C1.71828 48.1376 3.30078 54.1866 6.09328 59.5001Z" fill="#FFC839"/>
<path d="M28.0224 45.2505C27.7074 45.2505 27.3908 45.1454 27.1288 44.9295C26.5294 44.4356 26.444 43.5493 26.9379 42.9499C30.1666 39.0316 34.9276 36.7845 39.9999 36.7845C45.0674 36.7845 49.8255 39.0282 53.0543 42.9404C53.5487 43.5393 53.4638 44.4257 52.8647 44.9201C52.2662 45.4141 51.3794 45.3296 50.8851 44.7305C48.1926 41.468 44.2251 39.597 39.9999 39.597C35.7708 39.597 31.801 41.471 29.1083 44.7385C28.8304 45.076 28.4279 45.2505 28.0224 45.2505Z" fill="#BECAF5"/>
<path d="M50.7374 45.7606C50.3965 45.6766 50.0883 45.4874 49.8746 45.2088C48.6038 43.5515 48.2619 40.8723 48.1957 38.9484C47.3679 39.9126 46.4991 40.7191 45.669 41.3638C44.0515 42.6199 42.0557 43.3021 39.9999 43.3021C39.9213 43.3021 39.8429 43.2993 39.7646 43.2973L39.764 43.302L39.7671 43.3285C39.7735 43.3857 40.3555 49.0731 35.9088 53.5881C35.8171 53.5843 35.6741 53.5816 35.4948 53.5877L39.8201 58.764L39.9999 58.9791L50.9908 45.8257C50.9063 45.8038 50.8224 45.7813 50.7374 45.7606Z" fill="#FFAA7B"/>
<path d="M39.9999 43.3018C37.9443 43.3018 35.9483 42.6196 34.331 41.3635C33.5008 40.7188 32.6319 39.9122 31.8041 38.948C31.7379 40.8719 31.396 43.5512 30.1252 45.2085C29.9116 45.4871 29.6033 45.6765 29.2624 45.7602C29.1774 45.7812 29.0935 45.8035 29.0088 45.8251L35.6888 53.8193C35.8833 53.8182 36.0008 53.8272 36.0008 53.8272C40.6596 49.1687 39.9999 43.3018 39.9999 43.3018Z" fill="#FC9460"/>
<path d="M67.033 68.8196C69.7682 66.0909 72.0932 62.951 73.9066 59.5003C72.3697 55.2068 69.2238 51.2217 62.8827 50.7032C61.825 50.6168 61.2624 50.2065 60.016 49.5037C59.0539 48.9612 58.0868 48.4631 57.1069 48.009L41.4668 66.7265C41.1025 67.1624 40.5678 67.4124 39.9999 67.4124C39.4319 67.4124 38.8972 67.1624 38.533 66.7265L31.1258 57.862C31.1299 58.0084 31.138 58.1574 31.1525 58.3106C30.5783 58.2506 29.2399 58.152 27.5993 58.3013C25.6028 58.4829 22.7774 59.0851 20.6539 60.9226C18.5891 62.7092 17.5422 65.3226 17.5422 68.6898V72.676L19.5172 74.0623C23.2669 76.4424 27.4583 78.1892 31.9418 79.1499L31.9471 79.1485L34.6735 79.6292C34.6735 79.6292 34.7121 79.6349 34.7793 79.6454C36.4863 79.8782 38.2288 79.9998 39.9999 79.9998C47.4869 79.9998 54.4707 77.849 60.3697 74.1332L67.033 68.8196Z" fill="#1FA2EA"/>
<path d="M67.0331 68.8197C66.45 66.449 65.2448 64.652 64.0176 63.3534C62.7056 61.9651 60.3698 62.9009 60.3698 64.8111V74.1334C62.7864 72.6112 65.021 70.8272 67.0331 68.8197Z" fill="#218EE8"/>
<path d="M19.9839 49.5037C18.7375 50.2065 18.1749 50.6168 17.1172 50.7032C10.7761 51.2217 7.63017 55.2068 6.09329 59.5003C8.66486 64.3935 12.265 68.6615 16.6053 72.0184L17.7766 72.8406C17.7766 71.6117 17.7766 70.2345 17.7766 68.6898C17.7766 56.5984 31.4191 58.5782 31.4191 58.5782C31.3999 58.4346 31.387 58.2971 31.3769 58.162L22.893 48.0089C21.913 48.4632 20.9458 48.9613 19.9839 49.5037Z" fill="#218EE8"/>
<path d="M39.7801 -2.44647e-06C39.1279 0.53531 37.3723 2.1739 37.0754 4.51C36.8657 6.16015 37.4348 7.80297 38.7666 9.39265C38.8068 9.44062 38.8462 9.4914 38.8851 9.54359C39.8638 9.73468 40.8807 9.6725 41.8341 9.35531C43.6662 8.74609 46.5388 8.13593 48.8807 9.18968C51.6371 10.43 51.4062 14.2242 51.2541 16.3239C51.2012 17.0539 51.3748 17.7861 51.7693 18.4052C52.0023 18.7706 52.1871 19.1581 52.3338 19.5408C52.5162 20.0164 52.6459 20.8205 52.726 21.3195C53.1491 21.1145 54.0663 20.8912 54.5837 20.9644C54.6469 18.7694 54.8496 16.0905 54.8496 16.0905C57.0619 5.25531 48.0821 -0.0140649 39.7801 -2.44647e-06Z" fill="#2A428C"/>
<path d="M37.259 0.170632C29.0277 1.29219 28.2454 5.95907 28.2418 7.67126C28.241 8.03032 28.0421 8.36313 27.7193 8.52016C23.4377 10.603 25.7461 20.9541 25.7461 20.9541C26.1761 20.9828 26.9386 21.1569 27.2743 21.3195C27.3565 20.808 27.4907 19.9919 27.6802 19.505C27.8246 19.1341 28.0051 18.7594 28.2307 18.4053C28.6222 17.7911 28.8007 17.0664 28.7474 16.3419C28.5935 14.2477 28.3551 10.4336 31.1194 9.1897C33.4613 8.13595 36.3341 8.7461 38.166 9.35532C38.5066 9.4686 38.8555 9.54829 39.2077 9.59673C39.1236 9.46907 39.0368 9.35016 38.9463 9.2422C34.5677 4.01563 40.1355 0.0187573 40.1568 0.00344483C39.1775 -0.0137427 38.205 0.0417261 37.259 0.170632Z" fill="#1C2E7A"/>
<path d="M55.5089 20.9371C54.8678 20.3496 53.4345 20.6474 52.8823 21.0071C53.0032 21.7604 53.0101 22.531 52.9057 23.2919L52.2541 28.0375C52.2541 28.42 52.2421 28.7954 52.2199 29.1643C53.8088 29.6435 54.7543 28.2171 54.8873 27.2382C54.9445 26.8168 55.0381 26.4014 55.1679 25.9961C55.5904 24.6763 57.1151 22.4091 55.5089 20.9371Z" fill="#FFAA7B"/>
<path d="M24.4911 20.9371C25.1322 20.3496 26.5655 20.6474 27.1177 21.0071C26.9968 21.7604 26.9899 22.531 27.0944 23.2919L27.746 28.0375C27.746 28.42 27.758 28.7954 27.7802 29.1643C26.1913 29.6435 25.2458 28.2171 25.1129 27.2382C25.0557 26.8168 24.9621 26.4014 24.8322 25.9961C24.4096 24.6763 22.8849 22.4091 24.4911 20.9371Z" fill="#FC9460"/>
<path d="M52.6463 19.5409C52.4996 19.1583 52.3147 18.7708 52.0818 18.4053C51.6872 17.7863 51.5137 17.0541 51.5665 16.3241C51.7187 14.2242 51.6369 10.1177 48.8805 8.87735C46.5388 7.8236 43.6662 8.43375 41.8343 9.04281C40.7421 9.40594 39.5663 9.43485 38.4604 9.13125C36.6168 10.8436 36.5762 14.2523 36.7124 16.107C36.7669 16.8489 36.5843 17.5911 36.1832 18.2203C35.9521 18.583 35.7673 18.9667 35.6194 19.3466C35.1398 20.5788 34.9999 21.9152 35.1796 23.2238L35.8471 28.085C35.8471 35.0739 39.5777 39.8241 42.7512 42.2884C43.096 42.5562 43.4582 42.7973 43.834 43.0127C44.483 42.7175 45.0998 42.3483 45.669 41.9062C48.7676 39.5 52.4104 34.8617 52.4104 28.0377L53.0619 23.292C53.2355 22.0267 53.1038 20.7347 52.6463 19.5409Z" fill="#FFC7AB"/>
<path d="M42.786 41.9061C39.6874 39.4999 36.0446 34.8616 36.0446 28.0375L35.3929 23.2908C35.2174 22.0131 35.354 20.7083 35.8224 19.505C35.9668 19.1341 36.1472 18.7594 36.3729 18.4053C36.7644 17.791 36.9427 17.0664 36.8896 16.3419C36.7483 14.4202 36.801 10.7888 38.9461 9.2422C38.6827 9.19377 38.4216 9.12798 38.1655 9.04283C36.3336 8.43361 33.461 7.82361 31.1193 8.87736C28.3551 10.1211 28.2808 14.2478 28.4346 16.342C28.4879 17.0666 28.3094 17.7911 27.9179 18.4055C27.6922 18.7595 27.5118 19.1342 27.3674 19.5052C26.899 20.7085 26.7626 22.0133 26.9379 23.291L27.5896 28.0377C27.5896 34.8617 31.2324 39.5 34.3308 41.9063C35.9482 43.1622 37.9441 43.8444 39.9997 43.8444C41.4797 43.8444 42.928 43.4889 44.2272 42.8222C43.7222 42.5627 43.2388 42.2578 42.786 41.9061Z" fill="#FFAA7B"/>
<path d="M50.7254 45.7777L39.6413 59.0426L44.2757 63.7304L57.1007 48.3821C57.4054 48.0176 57.2801 47.4612 56.8476 47.2646C55.2312 46.5302 53.578 45.9176 51.8538 45.4313C51.4418 45.3152 50.9998 45.4495 50.7254 45.7777Z" fill="#73C3F9"/>
<path d="M43.8901 63.2689L40.0001 58.6134L35.798 53.5845C35.1562 53.5734 33.2941 53.659 32.1118 54.9059C31.349 55.7103 31.0263 56.8361 31.1485 58.2543C34.7666 62.5843 37.8004 66.215 38.3533 66.8767C39.2112 67.9032 40.789 67.9032 41.6468 66.8767L43.8901 64.192C44.1133 63.9248 44.1133 63.5361 43.8901 63.2689Z" fill="#49B1F7"/>
<path d="M29.3474 45.865C29.0286 45.4836 28.5147 45.3259 28.0368 45.4625C26.3515 45.9439 24.7336 46.5462 23.151 47.2653C22.7191 47.4615 22.5932 48.016 22.8974 48.3801C25.5386 51.5409 28.6649 55.2823 31.4189 58.5782C30.7286 53.4065 36.0008 53.8275 36.0008 53.8275L29.3474 45.865Z" fill="#1FA2EA"/>
<path d="M54.1057 53.7028V67.9592H56.9182V53.7028C56.9182 49.7818 55.546 45.9598 53.0543 42.9406C52.5599 42.3417 51.6735 42.2567 51.0746 42.751C50.4756 43.2454 50.3907 44.1317 50.8851 44.7307C52.9618 47.2475 54.1057 50.4337 54.1057 53.7028Z" fill="#DEEEFF"/>
<path d="M24.488 64.241C23.7113 64.241 23.0818 63.6115 23.0818 62.8348V53.7028C23.0818 49.7862 24.4513 45.9673 26.938 42.9501C27.4318 42.3507 28.318 42.2651 28.9175 42.7592C29.5169 43.2531 29.6024 44.1393 29.1085 44.7387C27.0358 47.2537 25.8944 50.4373 25.8944 53.7028V62.8348C25.8943 63.6115 25.2647 64.241 24.488 64.241Z" fill="#DEEEFF"/>
<path d="M33.719 76.7017C33.5658 77.1516 33.2118 77.5267 32.7246 77.6856C32.2698 77.8341 31.7966 77.762 31.4191 77.5294L31.9471 79.1486C32.8446 79.3408 33.7538 79.5013 34.6735 79.6292L33.719 76.7017Z" fill="#DEEEFF"/>
<path d="M26.1864 65.596C25.0235 65.596 24.2482 65.596 23.0854 65.596C21.9324 65.596 20.8408 65.9218 19.9113 66.499L21.8693 63.2535C23.1257 61.1709 26.146 61.1709 27.4024 63.2535L29.3604 66.499C28.4308 65.9218 27.3393 65.596 26.1864 65.596Z" fill="#2A428C"/>
<path d="M32.1389 70.7361C31.3889 70.2687 30.7421 70.1398 30.2161 70.3525C29.3989 70.6833 29.1253 71.745 29.1227 71.7558L29.1157 71.784L29.0363 71.8917L28.6499 70.7067C28.3011 69.6373 27.3111 68.9189 26.1864 68.9189C25.0236 68.9189 24.2483 68.9189 23.0853 68.9189C22.4472 68.9189 21.8528 69.1506 21.3939 69.5459C21.0135 69.5262 20.1461 69.4093 19.6153 68.7742C19.2286 68.3112 19.1053 67.6747 19.2472 66.8803C20.2996 66.0075 21.6444 65.4986 23.0853 65.4986H26.1864C28.796 65.4986 31.0927 67.1654 31.9018 69.6464L32.2874 70.8292C32.2379 70.7978 32.1883 70.7667 32.1389 70.7361Z" fill="#3C58A0"/>
<path d="M32.2165 70.6115L33.8657 75.6689C34.1585 76.5669 33.6679 77.5322 32.7699 77.825C31.8719 78.118 30.9066 77.6272 30.6138 76.7292L28.9804 71.7201C28.9805 71.7201 29.6497 69.0126 32.2165 70.6115Z" fill="#4B6BB2"/>
<path d="M19.4247 66.7384C18.4852 67.4593 17.7571 68.4592 17.37 69.6461L16.598 72.0134C17.54 72.7422 18.5166 73.4284 19.5255 74.0682L20.6217 70.7065C20.7978 70.1664 21.138 69.7162 21.5761 69.4025L21.5758 69.4023C21.576 69.4023 18.8146 69.5075 19.4247 66.7384Z" fill="#2A428C"/>
<path d="M53.102 62.797C53.2568 63.12 53.5567 63.3506 53.9943 63.4839C53.8943 63.7453 53.7313 64.3176 53.949 64.8698C54.1193 65.3021 54.484 65.6257 55.0331 65.8318L56.6542 67.0336C56.7017 67.325 56.9959 68.5481 58.5815 68.6098C58.5984 68.7975 58.6696 69.1439 58.9551 69.4157C59.2551 69.7015 59.7048 69.8215 60.2889 69.7776C60.8245 68.9128 61.1346 67.8936 61.1346 66.8015C61.1346 63.6753 58.6004 61.1411 55.4742 61.1411C54.621 61.1411 53.8128 61.3309 53.0873 61.6689C53.0098 61.8934 52.8949 62.3653 53.102 62.797Z" fill="#DEEEFF"/>
<path d="M60.3699 69.6417C58.6332 69.8217 58.7073 68.482 58.7073 68.482C56.8948 68.482 56.7757 66.9615 56.7757 66.9615L55.0959 65.7162C53.3301 65.0664 54.173 63.3973 54.173 63.3973C52.5865 63.0176 53.2546 61.5975 53.2573 61.592C51.233 62.4547 49.814 64.4622 49.814 66.8014C49.814 69.9276 52.3482 72.4619 55.4745 72.4619C57.5649 72.462 59.3896 71.3276 60.3699 69.6417Z" fill="#D3DCFB"/>
<path d="M53.9943 63.4839C53.8943 63.7453 53.7313 64.3176 53.949 64.8698C54.1193 65.3022 54.484 65.6258 55.0331 65.8319L56.6542 67.0336C56.7017 67.325 56.9959 68.5481 58.5815 68.6098C58.5837 68.634 58.5868 68.6609 58.5912 68.6898C58.9256 68.1392 59.1181 67.4928 59.1181 66.8016C59.1181 64.7892 57.4867 63.1578 55.4743 63.1578C54.9413 63.1578 54.4357 63.2731 53.9795 63.4787C53.9845 63.4803 53.9892 63.4823 53.9943 63.4839Z" fill="#D3DCFB"/>
<path d="M55.4743 70.4453C56.8804 70.4453 58.0996 69.6484 58.7071 68.482C56.8948 68.482 56.7756 66.9615 56.7756 66.9615L55.0957 65.7162C53.3368 65.069 54.1662 63.4108 54.1726 63.3979C52.8032 63.922 51.8304 65.2478 51.8304 66.8014C51.8304 68.8139 53.4618 70.4453 55.4743 70.4453Z" fill="#A8B7EF"/>
<path d="M55.4743 63.6103C56.1935 63.6103 56.8024 63.1417 57.0146 62.4936V59.5481C57.0146 58.6975 56.3249 58.0078 55.4743 58.0078C54.6237 58.0078 53.934 58.6975 53.934 59.5481V62.4936C54.1462 63.1417 54.7551 63.6103 55.4743 63.6103Z" fill="#6289CC"/>
<path d="M55.4743 63.5292C54.6237 63.5292 53.934 62.8395 53.934 61.9889V66.4025C53.934 67.2531 54.6237 67.9428 55.4743 67.9428C56.3251 67.9428 57.0146 67.2531 57.0146 66.4025V61.9889C57.0146 62.8395 56.3249 63.5292 55.4743 63.5292Z" fill="#4B6BB2"/>
<path d="M67.2689 14.8536C63.8531 17.3241 59.1181 22.3852 59.1181 31.4603C59.1181 46.4958 71.8885 45.4627 76.6026 52.9603C77.6932 49.4053 78.2815 45.6306 78.2815 41.7181C78.2815 31.2499 74.0781 21.7645 67.2689 14.8536Z" fill="#FFDD40"/>
<path d="M12.7309 14.8536C16.1467 17.3241 20.8817 22.3852 20.8817 31.4603C20.8817 46.4958 8.11125 45.4627 3.39718 52.9603C2.30656 49.4053 1.71828 45.6306 1.71828 41.7181C1.71828 31.2499 5.92187 21.7645 12.7309 14.8536Z" fill="#FFDD40"/>
</g>
<defs>
<clipPath id="clip0_141_1365">
<rect width="80" height="80" fill="white"/>
</clipPath>
</defs>
</svg>
