<svg width="80" height="80" viewBox="0 0 80 80" fill="none" xmlns="http://www.w3.org/2000/svg">
<path d="M77.6562 67.6147C76.3617 67.6147 75.3125 68.6639 75.3125 69.9585V72.569C75.3125 73.8312 76.2823 74.917 77.5427 74.9768C78.8892 75.0403 80 73.9673 80 72.6355V69.9585C80 68.6639 78.9508 67.6147 77.6562 67.6147Z" fill="#FFA300"/>
<path d="M8.62 31.0468H42.5104C44.3781 31.0468 45.498 28.9594 44.4604 27.403L39.8334 20.4626V8.62C39.8334 3.89526 36.0217 0 31.2134 0H8.62C3.83728 0 0 3.87146 0 8.62V22.4274C0 27.1649 3.82324 31.0468 8.62 31.0468Z" fill="#EFF6FE"/>
<path d="M39.8334 20.462V8.62C39.8334 3.89526 36.0217 0 31.2134 0H18.2654V31.0468H42.5104C44.3781 31.0468 45.4981 28.9594 44.4605 27.403L39.8334 20.462Z" fill="#D9E4EF"/>
<path d="M61.3385 24.5233C53.1116 24.5233 46.4429 31.192 46.4429 39.4189V40C46.4429 41.2946 47.4921 42.3438 48.7866 42.3438H73.8898C75.1843 42.3438 76.2335 41.2946 76.2335 40V39.4189C76.2341 31.1926 69.5648 24.5233 61.3385 24.5233Z" fill="#00D66A"/>
<path d="M61.3385 24.5233V42.3438H73.8904C75.1843 42.3438 76.2341 41.2946 76.2341 40V39.4189C76.2341 31.1926 69.5648 24.5233 61.3385 24.5233Z" fill="#00B85E"/>
<path d="M71.0901 14.7717C71.0901 20.1575 66.7242 24.5233 61.3391 24.5233C55.9534 24.5233 51.5875 20.1575 51.5875 14.7717C51.5875 9.3866 55.9534 5.02075 61.3391 5.02075C66.7242 5.02075 71.0901 9.3866 71.0901 14.7717Z" fill="#FFCFBE"/>
<path d="M71.0901 14.7723C71.0901 20.1581 66.7236 24.5227 61.3385 24.5227V5.02075C66.7236 5.02075 71.0901 9.38721 71.0901 14.7723Z" fill="#F9BCAA"/>
<path d="M77.6562 37.6562H20.6091C19.3152 37.6562 18.2654 38.7054 18.2654 40V67.6147C18.2654 68.9087 19.3152 69.9585 20.6091 69.9585H80V40C80 38.7054 78.9508 37.6562 77.6562 37.6562Z" fill="#FFCC4B"/>
<path d="M12.3853 12.8467H27.4481C28.7421 12.8467 29.7919 11.7975 29.7919 10.5029C29.7919 9.20898 28.7421 8.15918 27.4481 8.15918H12.3853C11.0913 8.15918 10.0415 9.20898 10.0415 10.5029C10.0415 11.7975 11.0907 12.8467 12.3853 12.8467Z" fill="#3AB4FB"/>
<path d="M12.3853 22.8876H19.917C21.2109 22.8876 22.2607 21.8384 22.2607 20.5438C22.2607 19.2493 21.2109 18.2001 19.917 18.2001H12.3853C11.0913 18.2001 10.0415 19.2493 10.0415 20.5438C10.0415 21.8384 11.0907 22.8876 12.3853 22.8876Z" fill="#3AB4FB"/>
<path d="M29.7925 10.5029C29.7925 11.7981 28.7421 12.8467 27.4487 12.8467H18.2654V8.15918H27.4487C28.7421 8.15918 29.7925 9.20898 29.7925 10.5029Z" fill="#1D9CFD"/>
<path d="M22.2607 20.5444C22.2607 21.8384 21.2109 22.8882 19.917 22.8882H18.2654V18.2007H19.917C21.2109 18.2007 22.2607 19.2493 22.2607 20.5444Z" fill="#1D9CFD"/>
<path d="M49.1327 69.9585H80V40C80 38.7054 78.9508 37.6562 77.6562 37.6562H49.1327V69.9585Z" fill="#FFB826"/>
<path d="M18.2648 58.1482C8.17749 58.1482 0 66.3263 0 76.4136V77.1259C0 78.7134 1.28662 80 2.87415 80H33.656C35.2435 80 36.5302 78.7134 36.5302 77.1259V76.4136C36.5302 66.3263 28.3527 58.1482 18.2648 58.1482Z" fill="#FF7579"/>
<path d="M18.2654 58.1482V80H33.656C35.2435 80 36.5302 78.7134 36.5302 77.1259V76.4136C36.5302 66.3263 28.3527 58.1488 18.2654 58.1482Z" fill="#FE4A60"/>
<path d="M29.7668 46.6473C29.7668 52.9993 24.6179 58.1488 18.2654 58.1488C11.9135 58.1488 6.76392 52.9993 6.76392 46.6473C6.76392 40.2954 11.9135 35.1459 18.2654 35.1459C24.6179 35.1459 29.7668 40.2954 29.7668 46.6473Z" fill="#F4AB97"/>
<path d="M29.7668 46.6479C29.7668 52.9993 24.6167 58.1476 18.2654 58.1476V35.1459C24.6167 35.1459 29.7668 40.296 29.7668 46.6479Z" fill="#E79A85"/>
</svg>
