<svg width="80" height="80" viewBox="0 0 80 80" fill="none" xmlns="http://www.w3.org/2000/svg">
<path d="M25.558 74.4431C24.5231 74.4431 23.6842 73.6042 23.6842 72.5694V57.4117C23.6842 54.5464 26.007 52.2238 28.8723 52.2238C31.7376 52.2238 34.0605 54.5464 34.0605 57.4117V72.5694C34.0605 73.6042 33.2215 74.4431 32.1867 74.4431H25.558Z" fill="#373C41"/>
<path d="M61.3705 74.4431C60.3356 74.4431 59.4967 73.6042 59.4967 72.5694V56.9981C59.4967 54.3614 61.8195 52.2241 64.6847 52.2241C67.55 52.2241 69.8728 54.3616 69.8728 56.9981V72.5694C69.8728 73.6042 69.0339 74.4431 67.999 74.4431H61.3705Z" fill="#272A2E"/>
<path d="M27.6764 66.524H25.5753V74.4433H27.6764V66.524Z" fill="#50555A"/>
<path d="M32.1703 66.524H30.0692V74.4433H32.1703V66.524Z" fill="#50555A"/>
<path d="M63.4883 66.524H61.3872V74.4433H63.4883V66.524Z" fill="#50555A"/>
<path d="M67.9822 66.524H65.8811V74.4433H67.9822V66.524Z" fill="#50555A"/>
<path d="M25.1763 47.1883C24.7377 47.1883 24.3 47.0152 23.9742 46.6719L19.3531 41.7994C18.7238 41.1358 18.7516 40.0877 19.415 39.4583C20.0788 38.8289 21.1269 38.8566 21.7563 39.5202L26.3774 44.3927C27.0067 45.0563 26.9789 46.1044 26.3155 46.7338C25.9953 47.0375 25.5855 47.1883 25.1763 47.1883Z" fill="#D72846"/>
<path d="M15.8641 42.7855H20.5117C21.8116 42.7855 22.8653 41.7317 22.8653 40.4319V38.6409C22.8653 37.3411 21.8116 36.2874 20.5117 36.2874H15.8641C14.5642 36.2874 13.5105 37.3411 13.5105 38.6409V40.4319C13.5105 41.7316 14.5642 42.7855 15.8641 42.7855Z" fill="#F75C66"/>
<path d="M68.3341 47.1883C67.925 47.1883 67.515 47.0377 67.1947 46.7339C66.5311 46.1045 66.5033 45.0564 67.1327 44.3928L71.7538 39.5203C72.3831 38.8567 73.4313 38.8289 74.0948 39.4584C74.7584 40.0878 74.7863 41.1359 74.1569 41.7995L69.5359 46.6719C69.2105 47.0152 68.7728 47.1883 68.3341 47.1883Z" fill="#D72846"/>
<path d="M77.6462 42.7855H72.9986C71.6987 42.7855 70.645 41.7317 70.645 40.4319V38.6409C70.645 37.3411 71.6987 36.2874 72.9986 36.2874H77.6462C78.9461 36.2874 79.9998 37.3411 79.9998 38.6409V40.4319C80 41.7316 78.9462 42.7855 77.6462 42.7855Z" fill="#E64B55"/>
<path d="M68.0453 44.6353H25.5251L28.7347 25.7233H64.8358L68.0453 44.6353Z" fill="#A0EBFF"/>
<path d="M49.6255 32.5145H43.885C43.4612 32.5145 43.1176 32.1711 43.1176 31.7472V30.2519C43.1176 29.8281 43.4611 29.4845 43.885 29.4845H49.6255C50.0492 29.4845 50.3928 29.828 50.3928 30.2519V31.7472C50.3928 32.1709 50.0491 32.5145 49.6255 32.5145Z" fill="#373C41"/>
<path d="M70.6087 46.1678C70.7253 46.793 70.5576 47.4378 70.1512 47.927C69.745 48.4162 69.1419 48.6992 68.5059 48.6992H25.0511C24.4151 48.6992 23.8122 48.4162 23.4058 47.927C22.9994 47.4378 22.8317 46.7933 22.9483 46.1678L26.8073 25.4805C26.9961 24.468 27.88 23.7336 28.9101 23.7336H64.647C65.6772 23.7336 66.5611 24.4678 66.7498 25.4805L70.6087 46.1678ZM27.6262 44.4211H65.9309L62.87 28.0119H30.687L27.6262 44.4211Z" fill="#D72846"/>
<path d="M55.7295 36.1011C52.0199 36.1011 49.0019 39.1191 49.0019 42.8288C49.0019 46.5384 52.0199 49.5564 55.7295 49.5564C59.4392 49.5564 62.4572 46.5384 62.4572 42.8288C62.4574 39.1191 59.4394 36.1011 55.7295 36.1011ZM55.7295 47.4167C53.1997 47.4167 51.1416 45.3586 51.1416 42.8288C51.1416 41.3077 51.8866 39.9592 53.0305 39.1253C53.7044 38.6341 54.6597 39.1124 54.6597 39.9549C54.6127 40.7727 54.8003 41.2927 54.3838 41.8825C54.1949 42.15 54.0838 42.4763 54.0838 42.8286C54.0838 43.3288 54.3077 43.7759 54.6597 44.078V45.1949H56.7995V44.0781C57.1516 43.7763 57.3756 43.3289 57.3756 42.8288C57.3756 42.4764 57.2644 42.1502 57.0756 41.8825C56.6592 41.2928 56.847 40.7731 56.7997 39.9549C56.7997 39.1167 57.7539 38.6333 58.4288 39.1255C59.5728 39.9592 60.3178 41.3075 60.3178 42.8289C60.3177 45.3588 58.2595 47.4167 55.7295 47.4167Z" fill="#696E73"/>
<path d="M55.7295 49.5564C52.0199 49.5564 49.0019 46.5384 49.0019 42.8288C49.0019 39.1191 52.0199 36.1011 55.7295 36.1011C59.4392 36.1011 62.4572 39.1191 62.4572 42.8288C62.4572 46.5384 59.4394 49.5564 55.7295 49.5564ZM55.7295 38.2406C53.1997 38.2406 51.1416 40.2988 51.1416 42.8288C51.1416 45.3588 53.1997 47.4167 55.7295 47.4167C58.2595 47.4167 60.3177 45.3586 60.3177 42.8288C60.3177 40.2989 58.2595 38.2406 55.7295 38.2406Z" fill="#373C41"/>
<g opacity="0.22">
<path opacity="0.22" d="M34.0605 69.9003V57.412C34.0605 54.5467 31.7376 52.2241 28.8723 52.2241C26.007 52.2241 23.6842 54.5469 23.6842 57.412V67.9747L34.0605 69.9003Z" fill="black"/>
<path opacity="0.22" d="M69.8726 69.9003V57.412C69.8726 54.5467 67.5498 52.2241 64.6845 52.2241C61.8192 52.2241 59.4966 54.5469 59.4966 57.412V67.9747L69.8726 69.9003Z" fill="black"/>
</g>
<path d="M74.3596 62.3655C74.3596 64.6625 72.4974 66.5245 70.2005 66.5245H23.3567C21.0597 66.5245 19.1977 64.6623 19.1977 62.3655V53.7187C19.1977 47.5811 24.1731 42.6056 30.3108 42.6056H63.2467C69.3844 42.6056 74.3599 47.5811 74.3599 53.7187V62.3655H74.3596Z" fill="#E64B55"/>
<path d="M19.4208 63.6761C19.9692 65.3294 21.5192 66.5244 23.3569 66.5244H70.2006C72.0383 66.5244 73.5883 65.3292 74.1367 63.6761H19.4208Z" fill="#50555A"/>
<path d="M54.9828 63.6761H38.7333C37.8427 63.6761 37.1206 62.9541 37.1206 62.0634V53.9222C37.1206 53.0316 37.8427 52.3095 38.7333 52.3095H54.9828C55.8734 52.3095 56.5955 53.0316 56.5955 53.9222V62.0634C56.5956 62.9541 55.8736 63.6761 54.9828 63.6761Z" fill="#D72846"/>
<path d="M28.7342 60.4287C31.2481 60.4287 33.2861 58.3901 33.2861 55.8753C33.2861 53.3605 31.2481 51.3219 28.7342 51.3219C26.2203 51.3219 24.1823 53.3605 24.1823 55.8753C24.1823 58.3901 26.2203 60.4287 28.7342 60.4287Z" fill="#D72846"/>
<path d="M64.8219 60.4287C67.3358 60.4287 69.3737 58.3901 69.3737 55.8753C69.3737 53.3605 67.3358 51.3219 64.8219 51.3219C62.3079 51.3219 60.27 53.3605 60.27 55.8753C60.27 58.3901 62.3079 60.4287 64.8219 60.4287Z" fill="#D72846"/>
<path d="M28.7342 59.3584C31.2481 59.3584 33.2861 57.3198 33.2861 54.805C33.2861 52.2902 31.2481 50.2516 28.7342 50.2516C26.2203 50.2516 24.1823 52.2902 24.1823 54.805C24.1823 57.3198 26.2203 59.3584 28.7342 59.3584Z" fill="#FAC855"/>
<path d="M64.8219 59.3584C67.3358 59.3584 69.3737 57.3198 69.3737 54.805C69.3737 52.2902 67.3358 50.2516 64.8219 50.2516C62.3079 50.2516 60.27 52.2902 60.27 54.805C60.27 57.3198 62.3079 59.3584 64.8219 59.3584Z" fill="#FAC855"/>
<path d="M51.3564 64.4306H42.3597C41.8392 64.4306 41.4172 64.0086 41.4172 63.4881V61.1172C41.4172 60.5967 41.8392 60.1747 42.3597 60.1747H51.3564C51.8769 60.1747 52.2989 60.5967 52.2989 61.1172V63.4881C52.2989 64.0086 51.8769 64.4306 51.3564 64.4306Z" fill="#B9B9BE"/>
<path d="M51.3564 60.1748H42.3597C41.8392 60.1748 41.4172 60.5967 41.4172 61.1172V62.187C41.4172 61.6666 41.8392 61.2447 42.3597 61.2447H51.3564C51.8769 61.2447 52.2989 61.6666 52.2989 62.187V61.1172C52.2989 60.5967 51.8769 60.1748 51.3564 60.1748Z" fill="#D2D2D7"/>
<path d="M64.8219 57.387C66.247 57.387 67.4023 56.231 67.4023 54.805C67.4023 53.379 66.247 52.223 64.8219 52.223C63.3967 52.223 62.2414 53.379 62.2414 54.805C62.2414 56.231 63.3967 57.387 64.8219 57.387Z" fill="#FAF58C"/>
<path d="M28.7342 57.387C30.1594 57.387 31.3147 56.231 31.3147 54.805C31.3147 53.379 30.1594 52.223 28.7342 52.223C27.3091 52.223 26.1537 53.379 26.1537 54.805C26.1537 56.231 27.3091 57.387 28.7342 57.387Z" fill="#FAF58C"/>
<path d="M53.1648 54.2509H40.5514C39.8169 54.2509 39.2213 54.8464 39.2213 55.5811C39.2213 56.3158 39.8169 56.9113 40.5514 56.9113H53.1648C53.8994 56.9113 54.495 56.3156 54.495 55.5811C54.495 54.8466 53.8994 54.2509 53.1648 54.2509Z" fill="#E64B55"/>
<path d="M60.6931 47.1331C59.6505 48.5808 57.9753 49.4387 56.1912 49.4387H36.4542C35.2426 49.4387 34.105 48.8561 33.3969 47.873L29.6033 42.6058H63.9541L60.6931 47.1331Z" fill="#F75C66"/>
<path d="M23.6844 60.1525C23.6844 59.573 23.2145 59.103 22.6348 59.103H19.2362V62.9259H22.6348C23.2144 62.9259 23.6844 62.4561 23.6844 61.8764V60.1525Z" fill="#FA870A"/>
<path d="M70.997 59.1031C70.4175 59.1031 69.9475 59.573 69.9475 60.1526V61.8766C69.9475 62.4561 70.4173 62.9261 70.997 62.9261H74.3208C74.3454 62.7426 74.3595 62.5556 74.3595 62.3655V59.1031H70.997Z" fill="#FA870A"/>
<path d="M48.1683 28.0123H45.5472V29.485H48.1683V28.0123Z" fill="#696E73"/>
<g opacity="0.38">
<path opacity="0.38" d="M43.9736 28.0119H39.908L31.9909 42.6056H36.0566L43.9736 28.0119Z" fill="white"/>
</g>
<g opacity="0.36">
<path opacity="0.36" d="M48.467 28.0119H46.1131L38.1963 42.6056H40.55L48.467 28.0119Z" fill="white"/>
</g>
<path d="M11.36 78.2227C9.34796 78.2227 7.71671 76.5916 7.71671 74.5794V45.4581C7.71671 43.4461 9.3478 41.8148 11.36 41.8148C13.3722 41.8148 15.0033 43.4459 15.0033 45.4581V74.5795C15.0033 76.5914 13.372 78.2227 11.36 78.2227Z" fill="#414B82"/>
<path d="M35.4698 30.3128L31.0122 20.8833C29.6923 18.0913 26.8439 16.2872 23.7558 16.2872H15.8489C15.7619 16.2872 15.6764 16.293 15.5912 16.3002H7.71656V16.325H7.54156C3.42172 16.325 0.0209375 19.5799 0 23.5803V45.3906C0 47.1203 1.40219 48.5227 3.13203 48.5227C4.86172 48.5227 6.26406 47.1205 6.26406 45.3906V23.6077C6.27047 23.0472 6.86609 22.5567 7.54188 22.5567H7.71688V45.458H23.7984V36.6142L33.3111 34.5645C33.9844 34.4194 34.6072 34.0745 35.0495 33.5467C35.8237 32.6225 35.9655 31.3613 35.4698 30.3128ZM23.7983 30.4441V22.3722H23.8337V22.3217C24.5708 22.3511 25.2422 22.7908 25.5591 23.4611L28.3922 29.4542L23.7983 30.4441Z" fill="#919196"/>
<path d="M0 43.8636V45.3905C0 47.1201 1.40219 48.5225 3.13203 48.5225C4.86188 48.5225 6.26406 47.1203 6.26406 45.3905V43.8636H0Z" fill="#BA6746"/>
<path d="M6.26375 43.8633H0V45.3902H6.26375V43.8633Z" fill="white"/>
<path d="M20.155 78.2227C18.143 78.2227 16.5117 76.5916 16.5117 74.5794V45.4581C16.5117 43.4461 18.1428 41.8148 20.155 41.8148C22.167 41.8148 23.7983 43.4459 23.7983 45.4581V74.5795C23.7983 76.5914 22.167 78.2227 20.155 78.2227Z" fill="#1E2D64"/>
<path d="M15.7569 14.363C19.2323 14.363 22.0497 11.5456 22.0497 8.07016C22.0497 4.59473 19.2323 1.77734 15.7569 1.77734C12.2814 1.77734 9.46405 4.59473 9.46405 8.07016C9.46405 11.5456 12.2814 14.363 15.7569 14.363Z" fill="#BA6746"/>
<path d="M35.4698 30.3128L31.0122 20.8833C29.6923 18.0913 26.8441 16.2872 23.7556 16.2872H21.5222V16.3002H15.7575V45.458H23.7983V36.6142L33.3786 34.55C34.2783 34.3563 35.0403 33.762 35.4477 32.9366C35.8552 32.1113 35.8633 31.145 35.4698 30.3128ZM23.7983 30.4441V22.3722H23.8338V22.3217C24.5708 22.3511 25.2422 22.7908 25.5591 23.4611L28.3922 29.4542L23.7983 30.4441Z" fill="#838387"/>
<path d="M15.7589 16.3002H11.1234L15.7589 28.4641L20.3947 16.3002H15.7589Z" fill="white"/>
<path d="M17.7706 20.4594L16.7388 18.5827L17.6342 16.9541C17.7956 16.6605 17.583 16.3002 17.2475 16.3002H14.2706C13.9356 16.3002 13.7224 16.66 13.8839 16.9541L14.7794 18.5827L13.7475 20.4594C13.6053 20.7181 13.5591 21.0185 13.6169 21.3078L14.1591 24.2655L15.7591 28.4638L17.3591 24.2655L17.9013 21.3078C17.9591 21.0185 17.9128 20.718 17.7706 20.4594Z" fill="#414B82"/>
<path d="M17.2475 16.3001C17.5825 16.3001 17.7958 16.66 17.6342 16.954L16.7388 18.5826L17.7706 20.4594C17.9128 20.7181 17.9591 21.0184 17.9013 21.3078L17.3591 24.2655L15.7591 28.4639V16.3L17.2475 16.3001Z" fill="#1E2D64"/>
<path d="M21.8641 26.2355H18.2656V27.285H21.8641V26.2355Z" fill="#373C41"/>
<path d="M23.3495 33.1319L17.3934 36.6167C16.9328 36.8862 16.3408 36.7312 16.0712 36.2706L10.5853 26.894C10.3158 26.4334 10.4708 25.8414 10.9314 25.5719L16.8876 22.087C17.3483 21.8175 17.9403 21.9725 18.2098 22.4331L23.6958 31.8097C23.9653 32.2703 23.8103 32.8623 23.3495 33.1319Z" fill="#C8D2DC"/>
<path d="M28.5639 34.7883L22.6078 38.2731C22.1472 38.5427 21.5552 38.3877 21.2856 37.927L15.7997 28.5505C15.5302 28.0899 15.6852 27.4978 16.1458 27.2283L22.102 23.7434C22.5627 23.4739 23.1547 23.6289 23.4242 24.0895L28.9102 33.4661C29.1795 33.9267 29.0245 34.5188 28.5639 34.7883Z" fill="#E6EBF0"/>
<path d="M18.1952 34.7548C17.8444 33.1267 18.8799 31.5223 20.5081 31.1714L32.108 28.672C33.7367 28.3208 35.3406 29.3567 35.6916 30.985C36.0425 32.6133 35.0069 34.2175 33.3786 34.5684L21.7788 37.0678C20.1436 37.42 18.5445 36.3762 18.1952 34.7548Z" fill="#838387"/>
<path d="M20.5081 31.1714C18.88 31.5222 17.8444 33.1266 18.1952 34.7549C18.5444 36.3761 20.1434 37.4202 21.7788 37.0678L20.5081 31.1714Z" fill="#BA6746"/>
<path d="M21.7774 37.0688L23.2549 36.7505L21.9846 30.8538L20.5071 31.1721L21.7774 37.0688Z" fill="white"/>
</svg>
