<svg width="80" height="80" viewBox="0 0 80 80" fill="none" xmlns="http://www.w3.org/2000/svg">
<path d="M76.5406 29.1692H3.58875V74.8972H76.5406V29.1692Z" fill="#F6C358"/>
<path d="M73.504 36.6045H69.152V44.15H73.504V36.6045Z" fill="#2D93BA"/>
<path d="M69.1522 44.1499V36.6047H73.5045L69.1522 44.1499Z" fill="#27A2DB"/>
<path d="M73.504 48.4171H69.152V55.9627H73.504V48.4171Z" fill="#2D93BA"/>
<path d="M69.1522 55.9608V48.4155H73.5045L69.1522 55.9608Z" fill="#27A2DB"/>
<path d="M73.504 60.2251H69.152V67.7707H73.504V60.2251Z" fill="#2D93BA"/>
<path d="M69.1522 67.7716V60.2263H73.5045L69.1522 67.7716Z" fill="#27A2DB"/>
<path d="M66.3359 36.6045H61.9839V44.15H66.3359V36.6045Z" fill="#2D93BA"/>
<path d="M61.9867 44.1499V36.6047H66.3391L61.9867 44.1499Z" fill="#27A2DB"/>
<path d="M66.3359 48.4171H61.9839V55.9627H66.3359V48.4171Z" fill="#2D93BA"/>
<path d="M61.9867 55.9608V48.4155H66.3391L61.9867 55.9608Z" fill="#27A2DB"/>
<path d="M66.3359 60.2251H61.9839V67.7707H66.3359V60.2251Z" fill="#2D93BA"/>
<path d="M61.9867 67.7716V60.2263H66.3391L61.9867 67.7716Z" fill="#27A2DB"/>
<path d="M59.1761 36.6045H54.824V44.15H59.1761V36.6045Z" fill="#2D93BA"/>
<path d="M54.8212 44.1499V36.6047H59.1737L54.8212 44.1499Z" fill="#27A2DB"/>
<path d="M59.1761 48.4171H54.824V55.9627H59.1761V48.4171Z" fill="#2D93BA"/>
<path d="M54.8212 55.9608V48.4155H59.1737L54.8212 55.9608Z" fill="#27A2DB"/>
<path d="M59.1761 60.2251H54.824V67.7707H59.1761V60.2251Z" fill="#2D93BA"/>
<path d="M54.8212 67.7716V60.2263H59.1737L54.8212 67.7716Z" fill="#27A2DB"/>
<path d="M65.4811 15.4916H14.6499L3.58893 29.1667H76.5421L65.4811 15.4916Z" fill="#64798A"/>
<path d="M53.4446 13.1488C53.4446 13.1488 50.235 7.61212 44.4575 10.9822C42.788 11.9561 43.254 9.56568 40.6059 11.6381V2.07544C40.6059 2.07544 40.8412 5.61393 46.4636 2.95819C48.065 2.20181 50.4757 1.35337 53.4446 2.55694C53.4446 2.55694 56.0925 6.40837 53.4446 13.1488Z" fill="#44C4A1"/>
<path d="M40.9047 2.07562H38.9791V19.8892H40.9047V2.07562Z" fill="#DC8744"/>
<path d="M51.3363 25.0247V74.8919H28.5476V25.0247V23.5802L39.942 16.4711L51.3363 23.5802V25.0247Z" fill="#FCD462"/>
<path d="M39.8368 37.2572C44.1318 37.2572 47.6135 33.7754 47.6135 29.4804C47.6135 25.1854 44.1318 21.7037 39.8368 21.7037C35.5418 21.7037 32.0601 25.1854 32.0601 29.4804C32.0601 33.7754 35.5418 37.2572 39.8368 37.2572Z" fill="white"/>
<path d="M39.8368 37.7769C35.2618 37.7769 31.5399 34.055 31.5399 29.4802C31.5399 24.9054 35.2618 21.1835 39.8368 21.1835C44.4114 21.1835 48.1333 24.9054 48.1333 29.4802C48.1333 34.055 44.4114 37.7769 39.8368 37.7769ZM39.8368 22.2228C35.8348 22.2228 32.5792 25.4784 32.5792 29.4802C32.5792 33.482 35.8348 36.7376 39.8368 36.7376C43.8384 36.7376 47.094 33.482 47.094 29.4802C47.094 25.4784 43.8384 22.2228 39.8368 22.2228Z" fill="#3A556A"/>
<path d="M38.8374 22.947H39.3804V24.4419H39.141V23.1716H38.8376V22.947H38.8374Z" fill="#2F4859"/>
<path d="M40.3836 23.5308C40.4263 23.4723 40.4479 23.4131 40.4479 23.3533C40.4479 23.2933 40.4248 23.2423 40.3793 23.2003C40.3339 23.1581 40.2761 23.1371 40.2064 23.1371C40.0836 23.1371 39.9816 23.1999 39.9006 23.3253L39.6973 23.2076C39.7628 23.1093 39.8351 23.0351 39.9145 22.9852C39.9934 22.9353 40.0954 22.9102 40.2203 22.9102C40.3449 22.9102 40.4544 22.9498 40.5484 23.0289C40.6423 23.108 40.6896 23.216 40.6896 23.3529C40.6896 23.4298 40.6695 23.5033 40.6298 23.5732C40.5896 23.643 40.5163 23.733 40.4094 23.8427L40.0588 24.1998H40.7368V24.4413H39.7144V24.2274L40.1678 23.772C40.2686 23.6698 40.3408 23.5892 40.3836 23.5308Z" fill="#2F4859"/>
<path d="M33.801 30.0213C33.9336 30.0213 34.0311 29.9763 34.0939 29.8867C34.1567 29.7969 34.1887 29.6756 34.1902 29.5231C34.1546 29.5631 34.1032 29.6004 34.0361 29.6355C33.9692 29.6703 33.8949 29.688 33.8137 29.688C33.6797 29.688 33.5674 29.6433 33.477 29.5543C33.3866 29.4652 33.3412 29.3469 33.3412 29.1993C33.3412 29.052 33.3902 28.9331 33.4877 28.8433C33.5856 28.7535 33.7084 28.7086 33.8569 28.7086C34.0965 28.7086 34.2617 28.8155 34.353 29.0293C34.4042 29.1519 34.4299 29.2901 34.4299 29.4442C34.4299 29.5981 34.4134 29.7264 34.3807 29.8291C34.3481 29.9319 34.3029 30.0129 34.2461 30.0729C34.1347 30.1897 33.9984 30.2482 33.8366 30.2482C33.6746 30.2482 33.5282 30.1978 33.3971 30.0963L33.5233 29.9103C33.5559 29.9388 33.6 29.9645 33.6549 29.9874C33.7095 30.0099 33.7584 30.0213 33.801 30.0213ZM33.8471 29.4654C33.9334 29.4654 34.0054 29.4416 34.0631 29.3936C34.1209 29.3458 34.1497 29.2839 34.1497 29.2076C34.1497 29.1315 34.122 29.0656 34.0663 29.0109C34.0106 28.956 33.9411 28.9286 33.8576 28.9286C33.7742 28.9286 33.7056 28.9531 33.6514 29.0025C33.5972 29.0518 33.57 29.1148 33.57 29.1916C33.57 29.2687 33.5944 29.3336 33.6437 29.3865C33.693 29.4393 33.7607 29.4654 33.8471 29.4654Z" fill="#2F4859"/>
<path d="M39.9367 34.8242C39.8042 34.8242 39.7063 34.8692 39.6437 34.959C39.5809 35.0488 39.5488 35.1699 39.5477 35.3225C39.5831 35.2826 39.6347 35.2453 39.7014 35.2102C39.7685 35.1753 39.8426 35.1577 39.9238 35.1577C40.0578 35.1577 40.1702 35.2023 40.2605 35.2914C40.3513 35.3805 40.3963 35.499 40.3963 35.6463C40.3963 35.7939 40.3473 35.9126 40.2498 36.0026C40.152 36.0922 40.0292 36.1372 39.881 36.1372C39.6416 36.1372 39.4759 36.0303 39.3849 35.8166C39.3337 35.694 39.308 35.5556 39.308 35.4017C39.308 35.2477 39.3242 35.1195 39.357 35.0167C39.39 34.914 39.4348 34.8328 39.492 34.773C39.603 34.656 39.7399 34.5977 39.9015 34.5977C40.0633 34.5977 40.2097 34.6481 40.341 34.7493L40.2146 34.9353C40.182 34.9068 40.1379 34.8813 40.0832 34.8585C40.028 34.8356 39.9793 34.8242 39.9367 34.8242ZM39.8906 35.3803C39.8044 35.3803 39.7322 35.4041 39.6744 35.4519C39.6167 35.4997 39.5878 35.5618 39.5878 35.6379C39.5878 35.7142 39.6157 35.7798 39.6714 35.8348C39.7267 35.8897 39.7967 35.9171 39.8808 35.9171C39.9648 35.9171 40.035 35.8925 40.0903 35.8432C40.146 35.7941 40.1737 35.7313 40.1737 35.655C40.1737 35.5788 40.148 35.5138 40.0968 35.4603C40.0457 35.4069 39.9767 35.3803 39.8906 35.3803Z" fill="#2F4859"/>
<path d="M45.3491 29.3071V29.0825H46.2238V29.2794L45.8623 29.6836C45.9994 29.688 46.1063 29.7311 46.1831 29.813C46.26 29.8951 46.2986 29.993 46.2986 30.107C46.2986 30.2596 46.2467 30.3795 46.1436 30.4663C46.0401 30.5533 45.907 30.5968 45.7446 30.5968C45.582 30.5968 45.4228 30.5446 45.2676 30.4406L45.3745 30.2375C45.4971 30.323 45.6255 30.3658 45.7596 30.3658C45.8466 30.3658 45.918 30.3455 45.9743 30.3048C46.0305 30.2641 46.0588 30.2056 46.0588 30.1295C46.0588 30.0532 46.0273 29.9923 45.9645 29.9465C45.9017 29.901 45.8149 29.8781 45.7037 29.8781C45.648 29.8781 45.5948 29.886 45.5432 29.9015V29.7091L45.8897 29.3071H45.3491Z" fill="#2F4859"/>
<path d="M40.2103 25.7692H39.8912V29.8093H40.2103V25.7692Z" fill="#2F4859"/>
<path d="M39.7313 29.6413H36.7913V29.9876H39.7313V29.6413Z" fill="#2F4859"/>
<path d="M43.3173 33.5919L43.4681 33.4593L38.9031 28.2673L38.7523 28.3999L43.3173 33.5919Z" fill="#E56353"/>
<path d="M40.04 30.3292C40.3272 30.3292 40.56 30.0965 40.56 29.8093C40.56 29.5222 40.3272 29.2894 40.04 29.2894C39.7529 29.2894 39.5201 29.5222 39.5201 29.8093C39.5201 30.0965 39.7529 30.3292 40.04 30.3292Z" fill="#27A2DB"/>
<path d="M80 74.8891H0V78.0451H80V74.8891Z" fill="#3A556A"/>
<path d="M44.7015 60.2572H35.1815V74.8947H44.7015V60.2572Z" fill="white"/>
<path d="M25.6449 36.6045H21.2928V44.15H25.6449V36.6045Z" fill="#2D93BA"/>
<path d="M21.2928 44.1499V36.6047H25.6453L21.2928 44.1499Z" fill="#27A2DB"/>
<path d="M25.6449 48.4171H21.2928V55.9627H25.6449V48.4171Z" fill="#2D93BA"/>
<path d="M21.2928 55.9608V48.4155H25.6453L21.2928 55.9608Z" fill="#27A2DB"/>
<path d="M25.6449 60.2251H21.2928V67.7707H25.6449V60.2251Z" fill="#2D93BA"/>
<path d="M21.2928 67.7716V60.2263H25.6453L21.2928 67.7716Z" fill="#27A2DB"/>
<path d="M18.4792 36.6045H14.1272V44.15H18.4792V36.6045Z" fill="#2D93BA"/>
<path d="M14.1276 44.1499V36.6047H18.4798L14.1276 44.1499Z" fill="#27A2DB"/>
<path d="M18.4792 48.4171H14.1272V55.9627H18.4792V48.4171Z" fill="#2D93BA"/>
<path d="M14.1276 55.9608V48.4155H18.4798L14.1276 55.9608Z" fill="#27A2DB"/>
<path d="M18.4792 60.2251H14.1272V67.7707H18.4792V60.2251Z" fill="#2D93BA"/>
<path d="M14.1276 67.7716V60.2263H18.4798L14.1276 67.7716Z" fill="#27A2DB"/>
<path d="M11.3145 36.6045H6.96243V44.15H11.3145V36.6045Z" fill="#2D93BA"/>
<path d="M6.96207 44.1499V36.6047H11.3143L6.96207 44.1499Z" fill="#27A2DB"/>
<path d="M11.3145 48.4171H6.96243V55.9627H11.3145V48.4171Z" fill="#2D93BA"/>
<path d="M6.96207 55.9608V48.4155H11.3143L6.96207 55.9608Z" fill="#27A2DB"/>
<path d="M11.3145 60.2251H6.96243V67.7707H11.3145V60.2251Z" fill="#2D93BA"/>
<path d="M6.96207 67.7716V60.2263H11.3143L6.96207 67.7716Z" fill="#27A2DB"/>
<path d="M38.0608 42.8413H31.5359V48.5229H38.0608V42.8413Z" fill="#2D93BA"/>
<path d="M31.5399 48.5223V42.8405H38.0643L31.5399 48.5223Z" fill="#27A2DB"/>
<path d="M47.9647 42.8413H41.4399V48.5229H47.9647V42.8413Z" fill="#2D93BA"/>
<path d="M41.4397 48.5223V42.8405H47.9641L41.4397 48.5223Z" fill="#27A2DB"/>
<path d="M38.2031 50.8171H31.6783V56.4988H38.2031V50.8171Z" fill="#2D93BA"/>
<path d="M31.6786 56.4975V50.8155H38.2031L31.6786 56.4975Z" fill="#27A2DB"/>
<path d="M48.1031 50.8171H41.5783V56.4988H48.1031V50.8171Z" fill="#2D93BA"/>
<path d="M41.5785 56.4975V50.8155H48.1029L41.5785 56.4975Z" fill="#27A2DB"/>
</svg>
