<svg width="80" height="80" viewBox="0 0 80 80" fill="none" xmlns="http://www.w3.org/2000/svg">
<path d="M67.3979 35.5342C67.0539 35.5342 66.7253 35.3371 66.5735 35.0036L62.4912 26.0257C62.2844 25.5707 62.4854 25.0342 62.9405 24.8273C63.3958 24.6203 63.9319 24.8217 64.1389 25.2766L68.2211 34.2546C68.428 34.7095 68.2269 35.2461 67.7718 35.4529C67.6504 35.5081 67.5231 35.5342 67.3979 35.5342Z" fill="#3C5A73"/>
<path d="M63.7878 64.0033L59.7834 46.14H45.8489C43.806 46.14 42.1498 44.4839 42.1498 42.4409C42.1498 40.398 43.806 38.7419 45.8489 38.7419H62.7452C64.4765 38.7419 65.9759 39.9426 66.3546 41.6318L71.0069 62.385C71.4538 64.3785 70.2001 66.3568 68.2066 66.8036C66.2054 67.2519 64.2331 65.9896 63.7878 64.0033Z" fill="#414B82"/>
<path d="M37.5431 66.8503C36.7341 66.6521 36.2388 65.8355 36.437 65.0265L40.7809 47.2996C40.9793 46.4906 41.796 45.9958 42.6048 46.1937C43.4138 46.3919 43.909 47.2085 43.7108 48.0175L39.367 65.7444C39.1692 66.5506 38.3551 67.049 37.5431 66.8503Z" fill="#6C9BAA"/>
<path d="M57.2207 65.7443L52.8768 48.0174C52.6786 47.2084 53.1737 46.3917 53.9828 46.1935C54.792 45.9951 55.6083 46.4904 55.8067 47.2994L60.1506 65.0263C60.3488 65.8353 59.8537 66.652 59.0445 66.8502C58.2355 67.0485 57.419 66.5534 57.2207 65.7443Z" fill="#6C9BAA"/>
<path d="M47.6787 17.7833H47.3336C43.0026 17.7833 39.4917 21.2942 39.4917 25.6252V38.7017C39.4917 43.1338 43.0847 46.7267 47.5167 46.7267L56.5915 38.7419V26.6961C56.5915 21.7736 52.601 17.7833 47.6787 17.7833Z" fill="#E64937"/>
<path d="M57.0475 14.84C59.9022 12.3633 60.2087 8.04139 57.7321 5.18665C55.2555 2.3319 50.9335 2.02538 48.0788 4.50201C45.224 6.97865 44.9175 11.3006 47.3941 14.1553C49.8708 17.0101 54.1927 17.3166 57.0475 14.84Z" fill="#FFB69E"/>
<path d="M66.632 35.6897L56.3021 34.9286C55.5466 34.8729 54.8381 34.5409 54.3117 33.9962L51.8026 31.399L52.5867 27.4707L56.3826 27.2668L57.9282 28.8666L67.0852 29.5414C68.7831 29.6665 70.058 31.1443 69.9329 32.8422C69.8068 34.5508 68.3183 35.8146 66.632 35.6897Z" fill="#FFB69E"/>
<path d="M56.3825 27.2668L50.2584 20.928C49.0754 19.7036 47.1243 19.6702 45.8996 20.853C44.6754 22.036 44.6418 23.9874 45.8246 25.2117L51.8024 31.399L56.3825 27.2668Z" fill="#D13D2C"/>
<path d="M58.2495 50.2765H38.5984C37.3001 50.2765 36.1947 49.3323 35.9916 48.05L31.477 19.5458C31.2488 18.1061 32.2312 16.7539 33.6711 16.5259C35.1105 16.2982 36.4627 17.2801 36.6908 18.72L40.8529 44.9977H58.2497C59.7074 44.9977 60.8891 46.1794 60.8891 47.6371C60.8889 49.0948 59.7072 50.2765 58.2495 50.2765Z" fill="#965028"/>
<path d="M77.3607 39.9835H59.0556C57.5979 39.9835 56.4162 38.8018 56.4162 37.3441C56.4162 35.8863 57.5979 34.7046 59.0556 34.7046H77.3605C78.8183 34.7046 80 35.8863 80 37.3441C80 38.8018 78.8183 39.9835 77.3607 39.9835Z" fill="#965028"/>
<path d="M53.6839 48.6953C53.1991 48.3013 53.1257 47.5888 53.5197 47.104L62.0356 36.6305C62.4297 36.1459 63.1422 36.0723 63.6269 36.4665C64.1117 36.8606 64.1852 37.573 63.7911 38.0578L55.2752 48.5313C54.881 49.0161 54.1685 49.0894 53.6839 48.6953Z" fill="#6C9BAA"/>
<path d="M35.9538 45.826C35.6098 45.826 35.2812 45.6289 35.1295 45.2954L31.0472 36.3174C30.8404 35.8625 31.0414 35.3259 31.4965 35.1191C31.9518 34.9121 32.4878 35.1135 32.6948 35.5684L36.7771 44.5463C36.9839 45.0013 36.7829 45.5379 36.3278 45.7447C36.2063 45.7999 36.0791 45.826 35.9538 45.826Z" fill="#3C5A73"/>
<path d="M32.3439 74.295L28.3394 56.4317H14.4048C12.3619 56.4317 10.7057 54.7756 10.7057 52.7327C10.7057 50.6897 12.3619 49.0336 14.4048 49.0336H31.3011C33.0323 49.0336 34.5318 50.2343 34.9105 51.9235L39.5628 72.6767C40.0097 74.6702 38.756 76.6485 36.7625 77.0953C34.7614 77.5437 32.7889 76.2813 32.3439 74.295Z" fill="#414B82"/>
<path d="M6.099 77.1421C5.29002 76.9439 4.79474 76.1272 4.99295 75.3182L9.33683 57.5913C9.53519 56.7823 10.3519 56.2875 11.1607 56.4854C11.9697 56.6836 12.465 57.5003 12.2668 58.3093L7.92287 76.0362C7.72514 76.8424 6.91097 77.3408 6.099 77.1421Z" fill="#6C9BAA"/>
<path d="M25.7766 76.0361L21.4327 58.3091C21.2345 57.5001 21.7296 56.6835 22.5388 56.4853C23.3479 56.2869 24.1643 56.7822 24.3626 57.5912L28.7065 75.3181C28.9047 76.1271 28.4096 76.9437 27.6005 77.142C26.7915 77.3403 25.975 76.8452 25.7766 76.0361Z" fill="#6C9BAA"/>
<path d="M16.2347 28.075H15.8896C11.5586 28.075 8.04767 31.5859 8.04767 35.9169V48.9935C8.04767 53.4256 11.6406 57.0185 16.0727 57.0185L25.1475 49.0337V36.9879C25.1475 32.0654 21.157 28.075 16.2347 28.075Z" fill="#64AFFF"/>
<path d="M25.6131 25.1194C28.4678 22.6427 28.7743 18.3208 26.2977 15.466C23.8211 12.6113 19.4991 12.3048 16.6444 14.7814C13.7896 17.258 13.4831 21.58 15.9597 24.4347C18.4364 27.2895 22.7583 27.596 25.6131 25.1194Z" fill="#FFB69E"/>
<path d="M35.188 45.9815L24.8581 45.2203C24.1026 45.1646 23.3941 44.8327 22.8677 44.288L20.3585 41.6908L21.1427 37.7624L24.9386 37.5586L26.4842 39.1584L35.6412 39.8332C37.3391 39.9582 38.614 41.4361 38.4889 43.1339C38.3627 44.8426 36.8742 46.1064 35.188 45.9815Z" fill="#FFB69E"/>
<path d="M24.9384 37.5586L18.8143 31.2198C17.6315 29.9954 15.6802 29.962 14.4555 31.1448C13.2313 32.3276 13.1977 34.2792 14.3805 35.5034L20.3583 41.6908L24.9384 37.5586Z" fill="#4699F2"/>
<path d="M26.8055 60.5683H7.15457C5.85627 60.5683 4.75083 59.6241 4.54776 58.3418L0.0329778 29.8375C-0.195202 28.3978 0.787195 27.0457 2.22705 26.8177C3.66643 26.59 5.01872 27.5719 5.24674 29.0118L9.4089 55.2894H26.8056C28.2634 55.2894 29.4451 56.4711 29.4451 57.9289C29.4449 59.3866 28.2632 60.5683 26.8055 60.5683Z" fill="#A56941"/>
<path d="M45.9167 50.2753H27.6118C26.1541 50.2753 24.9724 49.0936 24.9724 47.6358C24.9724 46.1781 26.1541 44.9964 27.6118 44.9964H45.9167C47.3744 44.9964 48.5561 46.1781 48.5561 47.6358C48.5561 49.0936 47.3744 50.2753 45.9167 50.2753Z" fill="#A56941"/>
<path d="M22.2398 58.9871C21.7551 58.593 21.6816 57.8806 22.0757 57.3958L30.5916 46.9223C30.9857 46.4377 31.6982 46.3641 32.1829 46.7583C32.6677 47.1524 32.7411 47.8648 32.3471 48.3496L23.8311 58.8231C23.4369 59.3079 22.7245 59.3812 22.2398 58.9871Z" fill="#6C9BAA"/>
</svg>
