<svg width="80" height="80" viewBox="0 0 80 80" fill="none" xmlns="http://www.w3.org/2000/svg">
<path d="M4.33337 0H75.6666C78.0599 0 80 1.94014 80 4.33337V53.3681C80 55.7613 78.0599 57.7015 75.6666 57.7015H4.33337C1.94014 57.7015 0 55.7613 0 53.3681V4.33337C0 1.94014 1.94014 0 4.33337 0V0Z" fill="#5F9549"/>
<path d="M33.5468 12.8334H16C15.2637 12.8334 14.6667 12.2364 14.6667 11.5001C14.6667 10.7637 15.2637 10.1667 16 10.1667H33.5468C34.2831 10.1667 34.8801 10.7637 34.8801 11.5001C34.8801 12.2364 34.2833 12.8334 33.5468 12.8334Z" fill="#D6D6D4"/>
<path d="M64 12.8334H46.4531C45.7167 12.8334 45.1198 12.2364 45.1198 11.5001C45.1198 10.7637 45.7167 10.1667 46.4531 10.1667H63.9999C64.7362 10.1667 65.3332 10.7637 65.3332 11.5001C65.3332 12.2364 64.7363 12.8334 64 12.8334Z" fill="#D6D6D4"/>
<path d="M24.7734 22.7135H16C15.2637 22.7135 14.6667 22.1165 14.6667 21.3802C14.6667 20.6438 15.2637 20.0468 16 20.0468H24.7734C25.5097 20.0468 26.1067 20.6438 26.1067 21.3802C26.1067 22.1165 25.5097 22.7135 24.7734 22.7135Z" fill="#D6D6D4"/>
<path d="M55.4401 22.7135H46.6667C45.9304 22.7135 45.3334 22.1165 45.3334 21.3802C45.3334 20.6438 45.9304 20.0468 46.6667 20.0468H55.4401C56.1764 20.0468 56.7734 20.6438 56.7734 21.3802C56.7734 22.1165 56.1764 22.7135 55.4401 22.7135Z" fill="#D6D6D4"/>
<path d="M67.7734 41.1866C67.7734 41.1866 61.6666 41.2532 60.0001 35.7466C55.6667 43.4133 45.6268 41.1866 45.6268 41.1866C45.6346 35.0709 50.5986 30.1196 56.7143 30.1273C62.8188 30.1352 67.7656 35.082 67.7734 41.1866Z" fill="#7B4229"/>
<path d="M27.4999 49.5L19.5282 53.1063L15.6838 43.9517C15.4531 43.4067 15.3339 42.8208 15.3334 42.2289C15.3337 39.8123 17.293 37.8536 19.7095 37.8537C21.4713 37.8539 23.0611 38.9107 23.7434 40.535L27.4999 49.5Z" fill="#FEB683"/>
<path d="M77.5599 63.6933V78.1867C77.5589 79.1877 76.7477 79.9991 75.7467 80H40.4267C39.4304 79.9978 38.6245 79.1885 38.6265 78.1922C38.6265 78.1903 38.6265 78.1886 38.6265 78.1867V62.6534H27.0532C24.9634 62.6589 23.0752 61.4071 22.2666 59.4801L19.5332 53.1068L27.4932 49.4935L28.8797 52.6535C29.2044 53.4038 29.9424 53.8905 30.7599 53.8935H67.7598C73.1714 53.8928 77.5591 58.2794 77.5597 63.691C77.5599 63.6916 77.5599 63.6925 77.5599 63.6933Z" fill="#338ED8"/>
<path d="M69.3333 62.9333V80H66.6666V62.9333C66.6666 62.197 67.2636 61.6 67.9999 61.6C68.7363 61.6 69.3333 62.1969 69.3333 62.9333Z" fill="#2976AA"/>
<path d="M15.9986 54.4401C15.2624 54.4398 14.6658 53.8426 14.6661 53.1063C14.6662 52.9053 14.7117 52.7069 14.7993 52.5259L30.1326 20.8001C30.4498 20.1355 31.2455 19.8539 31.9101 20.1709C32.5746 20.4881 32.8563 21.2838 32.5393 21.9484C32.5374 21.9523 32.5355 21.9562 32.5337 21.9601L17.2004 53.6873C16.9774 54.1481 16.5105 54.4404 15.9986 54.4401Z" fill="#707070"/>
<path d="M67.7734 41.1866C67.7716 45.2846 65.5105 49.0476 61.8933 50.9733V53.8933C60.0786 56.7578 56.2853 57.6087 53.4208 55.794C52.6546 55.3087 52.0055 54.6595 51.5201 53.8935V53.8933V50.9733C47.8955 49.0535 45.6282 45.2882 45.6268 41.1866C45.6268 41.1866 55.6667 43.4133 60.0001 35.7466C61.6666 41.2532 67.7734 41.1866 67.7734 41.1866Z" fill="#FEB683"/>
</svg>
