<svg width="80" height="80" viewBox="0 0 80 80" fill="none" xmlns="http://www.w3.org/2000/svg">
<g clip-path="url(#clip0_141_1250)">
<path d="M77.6562 25.1044H2.34375C1.04919 25.1044 0 26.1536 0 27.4481V71.3806C0 76.1334 3.86658 80 8.62 80H71.3806C76.1334 80 80 76.1334 80 71.3806V27.4481C80 26.1536 78.9508 25.1044 77.6562 25.1044Z" fill="#FEF4F5"/>
<path d="M77.6562 25.1044H40V80H71.3806C76.1334 80 80 76.1334 80 71.3806V27.4481C80 26.1536 78.9508 25.1044 77.6562 25.1044Z" fill="#D5EDED"/>
<path d="M65.1044 67.4481H14.8962C13.6017 67.4481 12.5525 66.3983 12.5525 65.1044C12.5525 63.8098 13.6017 62.7606 14.8962 62.7606H65.1044C66.3983 62.7606 67.4481 63.8098 67.4481 65.1044C67.4481 66.3983 66.3983 67.4481 65.1044 67.4481Z" fill="#008ADF"/>
<path d="M71.3806 0H8.62C3.86658 0 0 3.86658 0 8.62V27.4481C0 28.7421 1.04919 29.7919 2.34375 29.7919H77.6562C78.9508 29.7919 80 28.7421 80 27.4481V8.62C80 3.86658 76.1334 0 71.3806 0Z" fill="#008ADF"/>
<path d="M71.3806 0H40V29.7919H77.6562C78.9508 29.7919 80 28.7421 80 27.4481V8.62C80 3.86658 76.1334 0 71.3806 0Z" fill="#0065A3"/>
<path d="M65.1044 17.2394C64.4867 17.2394 63.8824 16.9891 63.446 16.5533C63.0103 16.1176 62.7606 15.5127 62.7606 14.8956C62.7606 14.2786 63.0103 13.6737 63.446 13.2379C63.8837 12.8021 64.4867 12.5519 65.1044 12.5519C65.7214 12.5519 66.3245 12.8021 66.7621 13.2379C67.1979 13.6755 67.4481 14.2786 67.4481 14.8956C67.4481 15.5127 67.1979 16.1176 66.7621 16.5533C66.3257 16.9891 65.7214 17.2394 65.1044 17.2394Z" fill="#E80048"/>
<path d="M52.5525 17.2394C51.9354 17.2394 51.3306 16.9891 50.8948 16.5533C50.459 16.1157 50.2087 15.5127 50.2087 14.8956C50.2087 14.2786 50.459 13.6749 50.8948 13.2379C51.3306 12.8021 51.9354 12.5519 52.5525 12.5519C53.1696 12.5519 53.7732 12.8021 54.209 13.2379C54.6466 13.6737 54.8962 14.2786 54.8962 14.8956C54.8962 15.5127 54.646 16.1176 54.209 16.5533C53.7726 16.9891 53.1696 17.2394 52.5525 17.2394Z" fill="#FF9F04"/>
<path d="M40.0012 17.2394C39.3823 17.2394 38.7793 16.9891 38.3435 16.5533C37.9059 16.1157 37.6556 15.5127 37.6556 14.8956C37.6556 14.2786 37.9059 13.6749 38.3435 13.2379C38.7793 12.8021 39.3835 12.5519 40.0012 12.5519C40.6165 12.5519 41.2213 12.8021 41.6571 13.2379C42.0935 13.6737 42.3431 14.2786 42.3431 14.8956C42.3431 15.5127 42.0935 16.1176 41.6571 16.5533C41.2213 16.9891 40.6165 17.2394 40.0012 17.2394Z" fill="#00CD77"/>
<path d="M27.4481 17.2394H14.8962C13.6017 17.2394 12.5525 16.1902 12.5525 14.8956C12.5525 13.6017 13.6017 12.5519 14.8962 12.5519H27.4481C28.7421 12.5519 29.7919 13.6017 29.7919 14.8956C29.7919 16.1902 28.7421 17.2394 27.4481 17.2394Z" fill="#FEF4F5"/>
<path d="M21.1719 37.6562C16.4191 37.6562 12.5525 41.5228 12.5525 46.2762C12.5525 51.0291 16.4191 54.8962 21.1719 54.8962C25.9247 54.8962 29.7919 51.0291 29.7919 46.2762C29.7919 41.5228 25.9247 37.6562 21.1719 37.6562Z" fill="#FF4949"/>
<path d="M65.1044 42.3438H40C38.7054 42.3438 37.6562 41.2946 37.6562 40C37.6562 38.7054 38.7054 37.6562 40 37.6562H65.1044C66.3983 37.6562 67.4481 38.7054 67.4481 40C67.4481 41.2946 66.3983 42.3438 65.1044 42.3438Z" fill="#0065A3"/>
<path d="M65.1044 54.8962H40C38.7054 54.8962 37.6562 53.8464 37.6562 52.5525C37.6562 51.2579 38.7054 50.2087 40 50.2087H65.1044C66.3983 50.2087 67.4481 51.2579 67.4481 52.5525C67.4481 53.8464 66.3983 54.8962 65.1044 54.8962Z" fill="#0065A3"/>
<path d="M65.1044 62.7606H40V67.4481H65.1044C66.3983 67.4481 67.4481 66.3983 67.4481 65.1044C67.4481 63.8098 66.3983 62.7606 65.1044 62.7606Z" fill="#0065A3"/>
</g>
<defs>
<clipPath id="clip0_141_1250">
<rect width="80" height="80" fill="white"/>
</clipPath>
</defs>
</svg>
