<svg width="35" height="40" viewBox="0 0 35 40" fill="none" xmlns="http://www.w3.org/2000/svg">
<path d="M17.1429 17.1429C20.6696 17.1429 23.9658 16.8229 27.0312 16.183C30.0967 15.5432 32.5149 14.5982 34.2857 13.3482V17.1429C34.2857 18.1696 33.5193 19.122 31.9866 20C30.4539 20.878 28.3705 21.5737 25.7366 22.0871C23.1027 22.6004 20.2381 22.8571 17.1429 22.8571C14.0476 22.8571 11.183 22.6004 8.54911 22.0871C5.91518 21.5737 3.83184 20.878 2.29911 20C0.766369 19.122 0 18.1696 0 17.1429V13.3482C1.77083 14.5982 4.18899 15.5432 7.25446 16.183C10.3199 16.8229 13.6161 17.1429 17.1429 17.1429ZM17.1429 34.2857C20.6696 34.2857 23.9658 33.9658 27.0312 33.3259C30.0967 32.686 32.5149 31.7411 34.2857 30.4911V34.2857C34.2857 35.3125 33.5193 36.2649 31.9866 37.1429C30.4539 38.0208 28.3705 38.7165 25.7366 39.2299C23.1027 39.7433 20.2381 40 17.1429 40C14.0476 40 11.183 39.7433 8.54911 39.2299C5.91518 38.7165 3.83184 38.0208 2.29911 37.1429C0.766369 36.2649 0 35.3125 0 34.2857V30.4911C1.77083 31.7411 4.18899 32.686 7.25446 33.3259C10.3199 33.9658 13.6161 34.2857 17.1429 34.2857ZM17.1429 25.7143C20.6696 25.7143 23.9658 25.3943 27.0312 24.7545C30.0967 24.1146 32.5149 23.1696 34.2857 21.9196V25.7143C34.2857 26.7411 33.5193 27.6935 31.9866 28.5714C30.4539 29.4494 28.3705 30.1451 25.7366 30.6585C23.1027 31.1719 20.2381 31.4286 17.1429 31.4286C14.0476 31.4286 11.183 31.1719 8.54911 30.6585C5.91518 30.1451 3.83184 29.4494 2.29911 28.5714C0.766369 27.6935 0 26.7411 0 25.7143V21.9196C1.77083 23.1696 4.18899 24.1146 7.25446 24.7545C10.3199 25.3943 13.6161 25.7143 17.1429 25.7143ZM17.1429 0C20.2381 0 23.1027 0.256696 25.7366 0.770089C28.3705 1.28348 30.4539 1.97917 31.9866 2.85714C33.5193 3.73512 34.2857 4.6875 34.2857 5.71429V8.57143C34.2857 9.59821 33.5193 10.5506 31.9866 11.4286C30.4539 12.3065 28.3705 13.0022 25.7366 13.5156C23.1027 14.029 20.2381 14.2857 17.1429 14.2857C14.0476 14.2857 11.183 14.029 8.54911 13.5156C5.91518 13.0022 3.83184 12.3065 2.29911 11.4286C0.766369 10.5506 0 9.59821 0 8.57143V5.71429C0 4.6875 0.766369 3.73512 2.29911 2.85714C3.83184 1.97917 5.91518 1.28348 8.54911 0.770089C11.183 0.256696 14.0476 0 17.1429 0Z" fill="white"/>
</svg>
