<svg width="44" height="42" viewBox="0 0 44 42" fill="none" xmlns="http://www.w3.org/2000/svg">
<path d="M13.5896 20.5333C11.1146 20.6097 9.09028 21.5875 7.51667 23.4667H4.44583C3.19306 23.4667 2.13889 23.1573 1.28333 22.5385C0.427778 21.9198 0 21.0146 0 19.8229C0 14.4299 0.947222 11.7333 2.84167 11.7333C2.93333 11.7333 3.26562 11.8938 3.83854 12.2146C4.41146 12.5354 5.15625 12.8601 6.07292 13.1885C6.98958 13.517 7.89861 13.6813 8.8 13.6813C9.82361 13.6813 10.8396 13.5056 11.8479 13.1542C11.7715 13.7194 11.7333 14.2236 11.7333 14.6667C11.7333 16.7903 12.3521 18.7458 13.5896 20.5333ZM38.1333 35.1313C38.1333 36.9646 37.5757 38.4122 36.4604 39.474C35.3451 40.5358 33.8632 41.0667 32.0146 41.0667H11.9854C10.1368 41.0667 8.65486 40.5358 7.53958 39.474C6.42431 38.4122 5.86667 36.9646 5.86667 35.1313C5.86667 34.3215 5.8934 33.5309 5.94688 32.7594C6.00035 31.9879 6.10729 31.1552 6.26771 30.2615C6.42812 29.3677 6.63056 28.5389 6.875 27.775C7.11944 27.0111 7.44792 26.2663 7.86042 25.5406C8.27292 24.8149 8.74653 24.1962 9.28125 23.6844C9.81597 23.1726 10.4691 22.7639 11.2406 22.4583C12.0122 22.1528 12.8639 22 13.7958 22C13.9486 22 14.2771 22.1642 14.7812 22.4927C15.2854 22.8212 15.8431 23.1878 16.4542 23.5927C17.0653 23.9976 17.8826 24.3642 18.9062 24.6927C19.9299 25.0212 20.9611 25.1854 22 25.1854C23.0389 25.1854 24.0701 25.0212 25.0938 24.6927C26.1174 24.3642 26.9347 23.9976 27.5458 23.5927C28.1569 23.1878 28.7146 22.8212 29.2188 22.4927C29.7229 22.1642 30.0514 22 30.2042 22C31.1361 22 31.9878 22.1528 32.7594 22.4583C33.5309 22.7639 34.184 23.1726 34.7188 23.6844C35.2535 24.1962 35.7271 24.8149 36.1396 25.5406C36.5521 26.2663 36.8806 27.0111 37.125 27.775C37.3694 28.5389 37.5719 29.3677 37.7323 30.2615C37.8927 31.1552 37.9997 31.9879 38.0531 32.7594C38.1066 33.5309 38.1333 34.3215 38.1333 35.1313ZM14.6667 5.86667C14.6667 7.48611 14.0938 8.86875 12.9479 10.0146C11.8021 11.1604 10.4194 11.7333 8.8 11.7333C7.18056 11.7333 5.79792 11.1604 4.65208 10.0146C3.50625 8.86875 2.93333 7.48611 2.93333 5.86667C2.93333 4.24722 3.50625 2.86458 4.65208 1.71875C5.79792 0.572917 7.18056 0 8.8 0C10.4194 0 11.8021 0.572917 12.9479 1.71875C14.0938 2.86458 14.6667 4.24722 14.6667 5.86667ZM30.8 14.6667C30.8 17.0958 29.9406 19.1698 28.2219 20.8885C26.5031 22.6073 24.4292 23.4667 22 23.4667C19.5708 23.4667 17.4969 22.6073 15.7781 20.8885C14.0594 19.1698 13.2 17.0958 13.2 14.6667C13.2 12.2375 14.0594 10.1635 15.7781 8.44479C17.4969 6.72604 19.5708 5.86667 22 5.86667C24.4292 5.86667 26.5031 6.72604 28.2219 8.44479C29.9406 10.1635 30.8 12.2375 30.8 14.6667ZM44 19.8229C44 21.0146 43.5722 21.9198 42.7167 22.5385C41.8611 23.1573 40.8069 23.4667 39.5542 23.4667H36.4833C34.9097 21.5875 32.8854 20.6097 30.4104 20.5333C31.6479 18.7458 32.2667 16.7903 32.2667 14.6667C32.2667 14.2236 32.2285 13.7194 32.1521 13.1542C33.1604 13.5056 34.1764 13.6813 35.2 13.6813C36.1014 13.6813 37.0104 13.517 37.9271 13.1885C38.8438 12.8601 39.5885 12.5354 40.1615 12.2146C40.7344 11.8938 41.0667 11.7333 41.1583 11.7333C43.0528 11.7333 44 14.4299 44 19.8229ZM41.0667 5.86667C41.0667 7.48611 40.4938 8.86875 39.3479 10.0146C38.2021 11.1604 36.8194 11.7333 35.2 11.7333C33.5806 11.7333 32.1979 11.1604 31.0521 10.0146C29.9062 8.86875 29.3333 7.48611 29.3333 5.86667C29.3333 4.24722 29.9062 2.86458 31.0521 1.71875C32.1979 0.572917 33.5806 0 35.2 0C36.8194 0 38.2021 0.572917 39.3479 1.71875C40.4938 2.86458 41.0667 4.24722 41.0667 5.86667Z" fill="white"/>
</svg>
